<svg xmlns="http://www.w3.org/2000/svg" width="391.139" height="65.284" viewBox="0 0 391.139 65.284">
  <path id="Path_157" data-name="Path 157" d="M-174.512-64.533c-12.569,0-21.011,15.664-21.011,32.173S-188.863.75-175.262.75c9,0,13.226-7.879,14.82-18.384h-2.251C-164.288-7.691-168.227-1.5-175.262-1.5c-10.974,0-13.976-15.758-13.976-30.86s4.409-30.015,14.82-30.015c7.035,0,11.256,4.6,11.725,12.381h1.407V-61.626h-.563a3.592,3.592,0,0,1-1.782.469C-165.883-61.157-167.477-64.533-174.512-64.533Zm38.926,0c-12.194,0-20.354,14.633-20.354,32.079,0,15.2,6.472,33.2,20.354,33.2,13.695,0,20.354-18.009,20.354-33.2C-115.231-49.9-123.392-64.533-135.586-64.533Zm0,2.064c10.224,0,14.07,13.976,14.07,30.015,0,14.539-2.908,31.141-14.07,31.141-11.35,0-14.07-16.6-14.07-31.141C-149.655-48.494-145.716-62.47-135.586-62.47Zm28.515,6.1v37.707c0,2.251-.844,16.884-1.5,18.2V0h5.44V-.469c-.657-1.313-1.5-15.946-1.5-18.2V-52.621L-75.179,0h2.439V-45.117c0-2.251.844-16.884,1.5-18.2v-.469h-5.44v.469c.657,1.313,1.5,15.946,1.5,18.2v33.955l-29.453-52.621h-5.815v.469C-109.791-62-107.071-57.686-107.071-56.373Zm50.276-5.44h8.16v54.4a20.037,20.037,0,0,1-1.5,6.941V0h8.629V-.469a20.037,20.037,0,0,1-1.5-6.941v-54.4h8.16c2.814,0,8.536,3.189,10.412,4.971h.563l-1.97-6.941H-65.8l-1.97,6.941h.563C-65.331-58.624-59.609-61.813-56.795-61.813Zm31.7,61.344c-.938-2.626-1.032-6.284.844-12.288l4.315-13.976H.8L6.613-10.787C7.926-7.035,8.395-2.345,7.926-.469V0h8.442V-.469L-6.8-64.533h-3.846L-30.907-.469l.094.469h5.722ZM-19.369-28.8l8.911-28.984L.047-28.8ZM40.286-64.533c-12.569,0-21.011,15.664-21.011,32.173S25.935.75,39.536.75c9,0,13.226-7.879,14.82-18.384H52.105C50.51-7.691,46.571-1.5,39.536-1.5,28.562-1.5,25.56-17.259,25.56-32.36s4.409-30.015,14.82-30.015c7.035,0,11.256,4.6,11.725,12.381h1.407V-61.626h-.563a3.592,3.592,0,0,1-1.782.469C48.916-61.157,47.321-64.533,40.286-64.533Zm28.233,2.72h8.16v54.4a20.037,20.037,0,0,1-1.5,6.941V0h8.629V-.469a20.037,20.037,0,0,1-1.5-6.941v-54.4h8.16c2.814,0,8.536,3.189,10.412,4.971h.563l-1.97-6.941H59.515l-1.97,6.941h.563C59.984-58.624,65.706-61.813,68.52-61.813ZM156.69-23.074c0,14.726-4.6,21.48-14.82,21.48-10.412,0-13.226-8.442-13.226-22.418v-32.36a20.037,20.037,0,0,1,1.5-6.941v-.469h-8.629v.469a20.037,20.037,0,0,1,1.5,6.941v33.3C123.017-6.941,129.583.75,141.87.75c12.1,0,17.822-7.691,17.822-23.825v-33.3a20.037,20.037,0,0,1,1.5-6.941v-.469h-6v.469a20.037,20.037,0,0,1,1.5,6.941Zm33.3,6.284c0,8.911-3.189,15.289-10.412,15.289-6.566,0-12.006-4.971-12.569-16.133h-2.251C165.32-5.44,170.666.75,179.577.75c8.817,0,16.04-6.941,16.04-17.54,0-10.412-3.283-15.477-11.631-19.791l-4.127-2.157c-5.628-2.908-7.785-6.847-7.785-12.569,0-6.378,2.72-11.068,9-11.068,6.472,0,10.505,4.6,10.974,12.381h1.407V-61.626H192.9a3.694,3.694,0,0,1-1.876.469c-2.157,0-3.564-3.377-10.036-3.377a13.873,13.873,0,0,0-14.257,14.351c0,8.817,4.6,13.882,10.505,16.79l4.409,2.157C188.113-28.046,189.989-23.543,189.989-16.79Z" transform="translate(195.523 64.533)"/>
</svg>
