<svg xmlns="http://www.w3.org/2000/svg" width="340.395" height="65.284" viewBox="0 0 340.395 65.284">
  <path id="Path_154" data-name="Path 154" d="M-139.338,0h8.536V-.469l-28.515-36.394,25.982-26.545v-.375h-5.534a15.36,15.36,0,0,1-2.626,5.253l-21.574,22.418v-20.26a20.037,20.037,0,0,1,1.5-6.941v-.469H-170.2v.469a20.037,20.037,0,0,1,1.5,6.941V-7.41a20.037,20.037,0,0,1-1.5,6.941V0h8.629V-.469a20.037,20.037,0,0,1-1.5-6.941V-33.017L-143.277-7.41c1.688,2.157,4.127,5.253,3.94,6.941Zm26.264.75C-100.88.75-92.72-13.882-92.72-31.329c0-15.2-6.472-33.2-20.354-33.2-13.695,0-20.354,18.009-20.354,33.2C-133.428-13.882-125.268.75-113.074.75Zm0-2.064c-10.224,0-14.07-13.976-14.07-30.015,0-14.539,2.908-31.141,14.07-31.141,11.35,0,14.07,16.6,14.07,31.141C-99-15.289-102.944-1.313-113.074-1.313Zm26.639-55.06V-7.41a20.037,20.037,0,0,1-1.5,6.941V0h8.629V-.469a20.037,20.037,0,0,1-1.5-6.941V-33.861H-56.42V-7.41a20.037,20.037,0,0,1-1.5,6.941V0h8.629V-.469a20.037,20.037,0,0,1-1.5-6.941V-56.373a20.037,20.037,0,0,1,1.5-6.941v-.469h-8.629v.469a20.037,20.037,0,0,1,1.5,6.941v20.542H-80.807V-56.373a20.037,20.037,0,0,1,1.5-6.941v-.469h-8.629v.469A20.037,20.037,0,0,1-86.435-56.373Zm42.96-7.41-2.345,7.035h.563c1.595-1.313,8.817-4.971,10.974-4.971h7.222V-7.41a20.037,20.037,0,0,1-1.5,6.941V0h8.629V-.469a20.037,20.037,0,0,1-1.5-6.941V-61.719h7.316c2.064,0,8.536,3.189,10.412,4.971h.563l-1.97-7.035ZM-4.455-.469c-.938-2.626-1.032-6.284.844-12.288L.7-26.733H21.433l5.816,15.946c1.313,3.752,1.782,8.442,1.313,10.318V0H37V-.469L13.835-64.533H9.99L-10.271-.469l.094.469h5.722ZM1.266-28.8,10.177-57.78,20.683-28.8ZM70.583,0h8.536V-.469L50.6-36.863,76.586-63.408v-.375H71.052a15.36,15.36,0,0,1-2.626,5.253L46.852-36.112v-20.26a20.037,20.037,0,0,1,1.5-6.941v-.469H39.724v.469a20.037,20.037,0,0,1,1.5,6.941V-7.41a20.037,20.037,0,0,1-1.5,6.941V0h8.629V-.469a20.037,20.037,0,0,1-1.5-6.941V-33.017L66.644-7.41c1.688,2.157,4.127,5.253,3.94,6.941ZM79.4-63.783l-2.345,7.035h.563c1.595-1.313,8.817-4.971,10.974-4.971h7.222V-7.41a20.037,20.037,0,0,1-1.5,6.941V0h8.629V-.469a20.037,20.037,0,0,1-1.5-6.941V-61.719h7.316c2.064,0,8.536,3.189,10.412,4.971h.563l-1.97-7.035Zm83.668,7.41V-7.41a20.037,20.037,0,0,1-1.5,6.941V0H170.2V-.469a20.037,20.037,0,0,1-1.5-6.941V-56.373a20.037,20.037,0,0,1,1.5-6.941v-.469h-8.629v.469A20.037,20.037,0,0,1,163.069-56.373Zm-25.607,19.6h-7.129v-19.7a19.475,19.475,0,0,1,1.5-6.847v-.469H123.2v.469a20.037,20.037,0,0,1,1.5,6.941V-7.41a20.037,20.037,0,0,1-1.5,6.941V0h14.164c13.976,0,20.26-10.6,20.26-19.322S151.344-36.769,137.462-36.769ZM130.333-2.064V-34.8h6.378c10.693,0,14.445,6.847,14.445,15.383s-3.377,17.353-14.07,17.353Z" transform="translate(170.197 64.533)"/>
</svg>
