<svg xmlns="http://www.w3.org/2000/svg" width="271.546" height="65.284" viewBox="0 0 271.546 65.284">
  <path id="Path_155" data-name="Path 155" d="M-113.871-62.376c7.035,0,11.256,4.6,11.725,12.381h1.407V-61.626h-.563a3.592,3.592,0,0,1-1.782.469c-2.251,0-3.846-3.377-10.881-3.377-12.569,0-21.1,15.664-21.1,32.173,0,15.2,6.753,33.111,21.949,33.111,8.629,0,10.881-4.315,13.038-4.315A2.708,2.708,0,0,1-98.488-3h.188V-28.8h-15.008v2.064h9.943V-4.971c-1.782,1.876-4.878,3.564-9.755,3.564-12.569,0-15.664-17.353-15.664-30.953,0-15.1,4.409-30.015,14.82-30.015ZM-90.328-.469c-.938-2.626-1.032-6.284.844-12.288l4.315-13.976H-64.44l5.816,15.946c1.313,3.752,1.782,8.442,1.313,10.318V0h8.442V-.469L-72.037-64.533h-3.846L-96.143-.469-96.05,0h5.722ZM-84.606-28.8-75.7-57.78-65.19-28.8Zm45.68-27.577a20.037,20.037,0,0,1,1.5-6.941v-.469h-8.629v.469a20.037,20.037,0,0,1,1.5,6.941V-7.41a20.037,20.037,0,0,1-1.5,6.941V0H-16.04l1.97-8.16h-.375c-1.407,1.782-6.66,6.566-8.723,6.566H-38.926Zm35.737,0a20.037,20.037,0,0,1,1.5-6.941v-.469h-8.629v.469a20.037,20.037,0,0,1,1.5,6.941V-7.41a20.037,20.037,0,0,1-1.5,6.941V0H19.7l1.97-8.16h-.375c-1.407,1.782-6.66,6.566-8.723,6.566H-3.189ZM44.648-1.97h-12.1v-31.8H51.214v-1.97H32.548V-61.813H43.8c2.814,0,8.536,3.189,10.412,4.971h.563l-1.97-6.941H25.419v.469a20.037,20.037,0,0,1,1.5,6.941V-7.41a20.037,20.037,0,0,1-1.5,6.941V0H53.653l1.97-6.941H55.06C53.184-5.159,47.462-1.97,44.648-1.97Zm17.165-54.4V-7.41a20.037,20.037,0,0,1-1.5,6.941V0h8.629V-.469a19.475,19.475,0,0,1-1.5-6.847v-26.17H77.1c7.035,0,10.412,3.658,11.256,12.944l.844,8.911C89.859-4.221,92.3.281,99.9.281a6.855,6.855,0,0,0,2.157-.375V-1.407h-.563c-3.846,0-5.065-3.846-5.44-7.973l-.938-9.849c-.938-9.192-6-13.788-11.537-15.383,5.534-1.688,10.881-5.722,10.881-14.164,0-9.286-7.6-15.008-17.915-15.008-4.315,0-7.6.188-9.567.188s-4.971-.094-6.66-.188v.469A20.037,20.037,0,0,1,61.813-56.373Zm12.85-5.159c8.254,0,13.319,4.784,13.319,13.319,0,8.442-4.409,12.757-13.038,12.757h-7.5V-61.532ZM121.657-.469a20.037,20.037,0,0,1-1.5-6.941V-24.763l16.321-38.551v-.469h-6.284v.469c.844,2.064,1.219,6.1-1.407,12.288l-9.943,23.637L107.212-53c-1.876-4.033-2.72-8.442-2.251-10.318v-.469H96.519l18.009,40.24V-7.41a20.037,20.037,0,0,1-1.5,6.941V0h8.629Z" transform="translate(135.07 64.533)"/>
</svg>
