<svg xmlns="http://www.w3.org/2000/svg" width="261.135" height="64.815" viewBox="0 0 261.135 64.815">
  <path id="Path_151" data-name="Path 151" d="M-113.309-61.813c2.814,0,8.536,3.189,10.412,4.971h.563l-1.97-6.941h-26.264v.469a20.037,20.037,0,0,1,1.5,6.941V-7.41a20.037,20.037,0,0,1-1.5,6.941V0h8.629V-.469a20.037,20.037,0,0,1-1.5-6.941v-54.4Zm9.661,61.344c-.938-2.626-1.032-6.284.844-12.288l4.315-13.976h20.729l5.816,15.946C-70.63-7.035-70.161-2.345-70.63-.469V0h8.442V-.469L-85.357-64.533H-89.2L-109.463-.469l.094.469h5.722ZM-97.926-28.8l8.911-28.984L-78.509-28.8Zm47.368-34.987v.469c2.626,1.126,3.94,4.5,3.846,6.753l-.657,15.571a112.594,112.594,0,0,1-4.127,27.3c-1.688,5.628-3.846,8.629-6.191,8.629a4.279,4.279,0,0,1-2.72-.75l-.469.094V0H-59c5.816,0,7.691-4.221,10.036-13.038a136.134,136.134,0,0,0,4.221-28.89l.938-19.885h15.758v54.4a20.037,20.037,0,0,1-1.5,6.941V0h8.629V-.469a20.037,20.037,0,0,1-1.5-6.941V-56.373a20.037,20.037,0,0,1,1.5-6.941v-.469Zm53,61.813h-12.1v-31.8H9v-1.97H-9.661V-61.813H1.595c2.814,0,8.536,3.189,10.412,4.971h.563L10.6-63.783H-16.79v.469a20.037,20.037,0,0,1,1.5,6.941V-7.41a20.037,20.037,0,0,1-1.5,6.941V0H11.443l1.97-6.941H12.85C10.974-5.159,5.253-1.97,2.439-1.97ZM19.6-56.373V-7.41A20.037,20.037,0,0,1,18.1-.469V0h8.629V-.469a19.475,19.475,0,0,1-1.5-6.847V-32.642h5.722c14.351,0,21.855-5.816,21.855-16.133,0-9.286-7.5-15.008-17.822-15.008-4.315,0-8.254.188-10.224.188s-4.971-.094-6.66-.188v.469A20.037,20.037,0,0,1,19.6-56.373Zm13.507-5.347c8.254,0,13.319,4.971,13.319,13.507,0,8.442-4.409,13.6-15.477,13.6H25.232V-61.719Zm43.8,59.75h-12.1v-31.8H83.481v-1.97H64.815V-61.813H76.071c2.814,0,8.536,3.189,10.412,4.971h.563l-1.97-6.941H57.686v.469a20.037,20.037,0,0,1,1.5,6.941V-7.41a20.037,20.037,0,0,1-1.5,6.941V0H85.919l1.97-6.941h-.563C85.45-5.159,79.729-1.97,76.915-1.97Zm52.152-54.4a20.037,20.037,0,0,1,1.5-6.941v-.469c-1.688.094-4.69.188-6.66.188s-5.253-.188-9.567-.188c-10.318,0-17.822,5.722-17.822,15.008,0,8.442,5.159,12.475,10.787,14.164-5.44,1.595-9.755,6.191-10.6,15.383l-.75,8.911c-.375,4.127-1.219,9.286-5.065,9.286H90.7v.938a3.354,3.354,0,0,0,1.782.375c7.6,0,9.286-4.6,10.13-12.85l.844-7.973c.938-9.286,3.283-12.944,10.318-12.944h9.661v26.17a19.475,19.475,0,0,1-1.5,6.847V0h8.629V-.469a20.037,20.037,0,0,1-1.5-6.941ZM115.935-35.456c-8.629,0-13.038-4.315-13.038-12.757,0-8.536,5.065-13.319,13.319-13.319h7.222v26.076Z" transform="translate(130.567 64.533)"/>
</svg>
