<svg xmlns="http://www.w3.org/2000/svg" width="290.869" height="65.284" viewBox="0 0 290.869 65.284">
  <path id="Path_13" data-name="Path 13" d="M-143.887-56.373V-7.41a20.037,20.037,0,0,1-1.5,6.941V0h7.035l25.044-57.967V-7.41a20.037,20.037,0,0,1-1.5,6.941V0h8.536V-.469a20.037,20.037,0,0,1-1.5-6.941V-56.373a20.037,20.037,0,0,1,1.5-6.941v-.469h-7.035L-138.353-6.1V-56.373a20.037,20.037,0,0,1,1.5-6.941v-.469h-8.536v.469A20.037,20.037,0,0,1-143.887-56.373Zm63.689-8.16c-12.569,0-21.011,15.664-21.011,32.173S-94.549.75-80.948.75c9,0,13.226-7.879,14.82-18.384h-2.251C-69.974-7.691-73.913-1.5-80.948-1.5c-10.974,0-13.976-15.758-13.976-30.86s4.409-30.015,14.82-30.015c7.035,0,11.256,4.6,11.725,12.381h1.407V-61.626h-.563a3.592,3.592,0,0,1-1.782.469C-71.568-61.157-73.163-64.533-80.2-64.533Zm19.416.75-2.345,7.035h.563c1.595-1.313,8.817-4.971,10.974-4.971h7.222V-7.41a20.037,20.037,0,0,1-1.5,6.941V0h8.629V-.469a20.037,20.037,0,0,1-1.5-6.941V-61.719h7.316c2.064,0,8.536,3.189,10.412,4.971h.563l-1.97-7.035ZM-1.219.75c12.194,0,20.354-14.633,20.354-32.079,0-15.2-6.472-33.2-20.354-33.2-13.695,0-20.354,18.009-20.354,33.2C-21.574-13.882-13.413.75-1.219.75Zm0-2.064c-10.224,0-14.07-13.976-14.07-30.015,0-14.539,2.908-31.141,14.07-31.141,11.35,0,14.07,16.6,14.07,31.141C12.85-15.289,8.911-1.313-1.219-1.313Zm26.639-55.06V-7.41a20.037,20.037,0,0,1-1.5,6.941V0h8.629V-.469a19.475,19.475,0,0,1-1.5-6.847V-32.642h5.722c14.351,0,21.855-5.816,21.855-16.133,0-9.286-7.5-15.008-17.822-15.008-4.315,0-8.254.188-10.224.188s-4.971-.094-6.66-.188v.469A20.037,20.037,0,0,1,25.419-56.373Zm13.507-5.347c8.254,0,13.319,4.971,13.319,13.507,0,8.442-4.409,13.6-15.477,13.6H31.047V-61.719ZM65.1-56.373V-7.41A20.037,20.037,0,0,1,63.6-.469V0H70.63L95.674-57.967V-7.41a20.037,20.037,0,0,1-1.5,6.941V0h8.536V-.469a20.037,20.037,0,0,1-1.5-6.941V-56.373a20.037,20.037,0,0,1,1.5-6.941v-.469H95.674L70.63-6.1V-56.373a20.037,20.037,0,0,1,1.5-6.941v-.469H63.6v.469A20.037,20.037,0,0,1,65.1-56.373Zm78.884,0a20.037,20.037,0,0,1,1.5-6.941v-.469c-1.688.094-4.69.188-6.66.188s-5.253-.188-9.567-.188c-10.318,0-17.822,5.722-17.822,15.008,0,8.442,5.159,12.475,10.787,14.164-5.44,1.595-9.755,6.191-10.6,15.383l-.75,8.911c-.375,4.127-1.219,9.286-5.065,9.286h-.188v.938A3.354,3.354,0,0,0,107.4.281c7.6,0,9.286-4.6,10.13-12.85l.844-7.973c.938-9.286,3.283-12.944,10.318-12.944h9.661v26.17a19.475,19.475,0,0,1-1.5,6.847V0h8.629V-.469a20.037,20.037,0,0,1-1.5-6.941ZM130.849-35.456c-8.629,0-13.038-4.315-13.038-12.757,0-8.536,5.065-13.319,13.319-13.319h7.222v26.076Z" transform="translate(145.388 64.533)"/>
</svg>
