<svg xmlns="http://www.w3.org/2000/svg" width="316.663" height="65.284" viewBox="0 0 316.663 65.284">
  <path id="Path_158" data-name="Path 158" d="M-153.548-.469c-.938-2.626-1.032-6.284.844-12.288l4.315-13.976h20.729l5.816,15.946c1.313,3.752,1.782,8.442,1.313,10.318V0h8.442V-.469l-23.168-64.064H-139.1L-159.364-.469l.094.469h5.722Zm5.722-28.327,8.911-28.984L-128.41-28.8Zm40.052-27.577V-7.41a20.037,20.037,0,0,1-1.5,6.941V0H-93.7c15.383,0,20.26-10.6,20.26-19.041S-80.01-33.2-88.264-34.518C-82.543-36.675-77.2-41.084-77.2-49.432c0-8.629-7.6-14.351-17.916-14.351-4.315,0-5.534.188-7.5.188s-4.971-.094-6.66-.188v.469A20.037,20.037,0,0,1-107.774-56.373Zm5.628-5.347h5.159c10.13,0,13.319,4.971,13.319,12.194,0,9.755-3.564,14.633-12.194,14.633h-6.284Zm22.23,43.241c0,8.442-3.471,16.509-14.07,16.509h-7.222a21.346,21.346,0,0,1-.938-5.347V-32.923H-92.3C-84.043-32.923-79.916-27.014-79.916-18.478Zm31.141-46.055c-12.194,0-20.354,14.633-20.354,32.079,0,15.2,6.472,33.2,20.354,33.2,13.695,0,20.354-18.009,20.354-33.2C-28.421-49.9-36.581-64.533-48.775-64.533Zm0,2.064c10.224,0,14.07,13.976,14.07,30.015,0,14.539-2.908,31.141-14.07,31.141-11.35,0-14.07-16.6-14.07-31.141C-62.845-48.494-58.905-62.47-48.775-62.47Zm60.125,39.4c0,14.726-4.6,21.48-14.82,21.48-10.412,0-13.226-8.442-13.226-22.418v-32.36a20.037,20.037,0,0,1,1.5-6.941v-.469h-8.629v.469a20.037,20.037,0,0,1,1.5,6.941v33.3C-22.324-6.941-15.758.75-3.471.75c12.1,0,17.822-7.691,17.822-23.825v-33.3a20.037,20.037,0,0,1,1.5-6.941v-.469h-6v.469a20.037,20.037,0,0,1,1.5,6.941ZM30.2-61.813h8.16v54.4a20.037,20.037,0,0,1-1.5,6.941V0h8.629V-.469a20.037,20.037,0,0,1-1.5-6.941v-54.4h8.16c2.814,0,8.536,3.189,10.412,4.971h.563l-1.97-6.941H21.2l-1.97,6.941h.563C21.667-58.624,27.389-61.813,30.2-61.813Zm88.171,38.739c0,14.726-4.6,21.48-14.82,21.48-10.412,0-13.226-8.442-13.226-22.418v-32.36a20.037,20.037,0,0,1,1.5-6.941v-.469H83.2v.469a20.037,20.037,0,0,1,1.5,6.941v33.3C84.7-6.941,91.266.75,103.553.75c12.1,0,17.822-7.691,17.822-23.825v-33.3a20.037,20.037,0,0,1,1.5-6.941v-.469h-6v.469a20.037,20.037,0,0,1,1.5,6.941Zm33.3,6.284c0,8.911-3.189,15.289-10.412,15.289-6.566,0-12.006-4.971-12.569-16.133H126.44C127-5.44,132.35.75,141.26.75c8.817,0,16.04-6.941,16.04-17.54,0-10.412-3.283-15.477-11.631-19.791l-4.127-2.157c-5.628-2.908-7.785-6.847-7.785-12.569,0-6.378,2.72-11.068,9-11.068,6.472,0,10.505,4.6,10.974,12.381h1.407V-61.626h-.563a3.694,3.694,0,0,1-1.876.469c-2.157,0-3.564-3.377-10.036-3.377A13.873,13.873,0,0,0,128.41-50.182c0,8.817,4.6,13.882,10.505,16.79l4.409,2.157C149.8-28.046,151.672-23.543,151.672-16.79Z" transform="translate(159.364 64.533)"/>
</svg>
