<svg viewBox="0 0 10.83 10.83"><path class="cls-1" d="M10.8 3.18a4.16 4.16 0 0 0-.25-1.31 2.67 2.67 0 0 0-.63-1 2.67 2.67 0 0 0-.92-.59 4.16 4.16 0 0 0-1.35-.28h-4.470000000000001a4.16 4.16 0 0 0-1.31.28 2.67 2.67 0 0 0-1 .63 2.67 2.67 0 0 0-.63 1 4.16 4.16 0 0 0-.24 1.27v4.470000000000001a4.16 4.16 0 0 0 .28 1.35 2.67 2.67 0 0 0 .63 1 2.67 2.67 0 0 0 1 .63 4.16 4.16 0 0 0 1.31.25h4.470000000000001a4.16 4.16 0 0 0 1.31-.33 2.83 2.83 0 0 0 1.55-1.55 4.16 4.16 0 0 0 .25-1.31v-2.23s.02-1.7 0-2.28zm-5.38 5.14a2.91 2.91 0 1 1 2.9-2.9 2.9 2.9 0 0 1-2.9 2.9zm3-5.25a.68.68 0 1 1 .68-.67.67.67 0 0 1-.67.67z" fill="currentColor"/></svg>
