<svg xmlns="http://www.w3.org/2000/svg" viewBox="0 0 10.83 10.83"><defs><style>.cls-1{fill:#fff;}</style></defs><title>Asset 1</title><g id="Layer_2" data-name="Layer 2"><g id="Layout"><path class="cls-1" d="M10.8,3.18a4.16,4.16,0,0,0-.25-1.31,2.67,2.67,0,0,0-.63-1A2.67,2.67,0,0,0,9,.28,4.16,4.16,0,0,0,7.65,0c-.58,0-.76,0-2.23,0S3.76,0,3.18,0A4.16,4.16,0,0,0,1.87.28a2.67,2.67,0,0,0-1,.63,2.67,2.67,0,0,0-.63,1A4.16,4.16,0,0,0,0,3.18c0,.58,0,.76,0,2.24S0,7.07,0,7.65A4.16,4.16,0,0,0,.28,9a2.67,2.67,0,0,0,.63,1,2.67,2.67,0,0,0,1,.63,4.16,4.16,0,0,0,1.31.25c.58,0,.76,0,2.24,0s1.65,0,2.23,0A4.16,4.16,0,0,0,9,10.55,2.83,2.83,0,0,0,10.55,9a4.16,4.16,0,0,0,.25-1.31c0-.58,0-.76,0-2.23S10.82,3.76,10.8,3.18ZM5.42,8.32a2.91,2.91,0,1,1,2.9-2.9A2.9,2.9,0,0,1,5.42,8.32Zm3-5.25a.68.68,0,1,1,.68-.67A.67.67,0,0,1,8.43,3.07Z"/></g></g></svg>