<svg xmlns="http://www.w3.org/2000/svg" viewBox="0 0 1419.53 361.91"><title>Asset 7</title><g id="Layer_2" data-name="Layer 2"><g id="Layout"><path d="M348.77,150.26c.44-4-5.28-11.22-9.24-16.28L293.11,73.92V134c0,5.28,2,13.2,3.52,16.28v1.1H276.39v-1.1c1.54-3.08,3.52-11,3.52-16.28V19.14c0-5.28-2-13.2-3.52-16.28V1.76h20.24v1.1c-1.54,3.08-3.52,11-3.52,16.28V66.66l50.6-52.58c2.86-3.08,5.06-8.8,6.16-12.32h13v.88L301.91,64.9l66.88,85.36v1.1h-20ZM375.84,2.86V1.76h20v1.1c-1.54,3.08-3.52,11-3.52,16.28V137.06L451.08,1.76h16.5v1.1c-1.54,3.08-3.52,11-3.52,16.28V134c0,5.28,2,13.2,3.52,16.28v1.1h-20v-1.1c1.54-3.08,3.52-11,3.52-16.28V15.4l-58.74,136h-16.5v-1.1c1.54-3.08,3.52-11,3.52-16.28V19.14C379.36,13.86,377.38,5.94,375.84,2.86Zm105.83,0V1.76h20.24v1.1c-1.54,3.08-3.52,11-3.52,16.28V67.32h57.2V19.14c0-5.28-2-13.2-3.52-16.28V1.76h20.24v1.1c-1.54,3.08-3.52,11-3.52,16.28V134c0,5.28,2,13.2,3.52,16.28v1.1H552.07v-1.1c1.54-3.08,3.52-11,3.52-16.28v-62h-57.2v62c0,5.28,2,13.2,3.52,16.28v1.1H481.67v-1.1c1.54-3.08,3.52-11,3.52-16.28V19.14C485.19,13.86,483.21,5.94,481.67,2.86Zm101.86,75C583.53,42.24,599.15,0,631.27,0,663.83,0,679,42.24,679,77.88c0,40.92-19.14,75.24-47.74,75.24S583.53,118.8,583.53,77.88Zm80.74,0c0-34.1-6.38-73-33-73-26.18,0-33,38.94-33,73,0,37.62,9,70.4,33,70.4C655,148.28,664.27,115.5,664.27,77.88ZM771.86,1.76l4.62,16.5h-1.32c-4.4-4.18-19.58-11.66-24.42-11.66H733.58V134c0,5.28,2,13.2,3.52,16.28v1.1H716.86v-1.1c1.54-3.08,3.52-11,3.52-16.28V6.6H703.44c-5.06,0-22,8.58-25.74,11.66h-1.32l5.5-16.5Zm82.29,133.32h1.32l-4.62,16.28H784.63v-1.1c1.54-3.08,3.52-11,3.52-16.28V19.14c0-5.28-2-13.2-3.52-16.28V1.76h64.24L853.49,18h-1.32c-4.4-4.18-17.82-11.66-24.42-11.66h-26.4V67.54h43.78v4.62H801.35v74.58h28.38C836.33,146.74,849.75,139.26,854.15,135.08Zm20.9,16.28H861.63l-.22-1.1L908.93,0h9l54.34,150.26v1.1h-19.8v-1.1c1.1-4.4,0-15.4-3.08-24.2l-13.64-37.4H887.15L877,121.44c-4.4,14.08-4.18,22.66-2,28.82Zm59-67.54-24.64-68-20.9,68ZM1050.4,1.76l4.62,16.5h-1.32c-4.4-4.18-19.58-11.66-24.42-11.66h-17.16V134c0,5.28,2,13.2,3.52,16.28v1.1H995.4v-1.1c1.54-3.08,3.52-11,3.52-16.28V6.6H982c-5.06,0-22,8.58-25.74,11.66h-1.32l5.5-16.5Zm12.77,1.1V1.76c4,.22,11,.44,15.62.44s13.86-.44,24-.44c24.2,0,41.8,13.42,41.8,35.2,0,24.2-17.6,37.84-51.26,37.84h-13.42v59.4a45.68,45.68,0,0,0,3.52,16.06v1.1h-20.24v-1.1c1.54-3.08,3.52-11,3.52-16.28V19.14C1066.69,13.86,1064.71,5.94,1063.17,2.86Zm16.72,3.74V70.18h13.42c26,0,36.3-12.1,36.3-31.9,0-20-11.88-31.68-31.24-31.68Z"/><path d="M79.42,339.25v-1.1c0-4.4-2.2-14.52-7.7-24.2l-26-46.2L22.22,309.33c-8.14,14.08-7.7,22.66-6.16,28.82v1.1H.22L0,338.15,42.68,262,2,189.65H23.32v1.1c-.44,4.4,2,15,7.26,24.2l21.12,37.4,18.92-32.78c7.92-13.86,7.92-22.66,6.38-28.82v-1.1H94.16l-.44,1.1-38.94,67.1,46,81.4Zm31.25-18a35.86,35.86,0,0,1,1.54-9.9h5.94a32.25,32.25,0,0,0-1.54,9.9c0,6.6,2.86,12.32,9,12.32,11.22,0,16.72-14.08,23.32-31.9l.66-2-45.54-110h19.58v1.1c-1.1,4.4.88,15.18,4.62,24.2L156,282.71l24-63.14c5.72-15.4,4.62-22.66,3.08-28.82v-1.1h14.08l.22,1.1L154.23,303.83c-8.14,21.56-13.86,35.42-28.82,35.42C114.85,339.25,110.67,331.33,110.67,321.21Zm76.78,13.2c15.18-5.06,24.64-43.34,26.18-86.46l1.54-41.36c.22-5.28-2.86-13.2-9-15.84v-1.1h69.74v1.1c-1.54,3.08-3.52,11-3.52,16.28V321.87a50.07,50.07,0,0,0,2.2,12.54h10.12l4.62,27.5H288c-6.82-11.44-16.06-22.66-24.64-22.66H201.53c-5.06,0-15.4,10.78-23.1,22.66h-1.32l5.5-27.5Zm10.78,0h60.94V194.27H222l-2.42,54.12C217.81,287.33,211.21,321.43,198.23,334.41ZM295,265.77c0-35.64,15.62-77.88,47.74-77.88,32.56,0,47.74,42.24,47.74,77.88,0,40.92-19.14,75.24-47.74,75.24S295,306.69,295,265.77Zm80.74,0c0-34.1-6.38-73-33-73-26.18,0-33,38.94-33,73,0,37.62,9,70.4,33,70.4C366.54,336.17,375.78,303.39,375.78,265.77Zm14.53,72.38,47.74-93.94-43.34-53.68v-.88h13.86c0,3.52,1.1,10.12,3.74,13.42l44.22,55.44V207c0-5.28-2-13.2-3.52-16.28v-1.1h20v1.1c-1.54,3.08-3.52,11-3.52,16.28v51.7l44.22-55.66c2.64-3.3,3.74-9.9,3.74-13.42h13.86v.88L488,244.21l47.74,93.94v1.1H517.91v-1.1c1.1-4-2.42-10.56-5.28-16.28l-33.22-67.1-9.9,12.54v54.56c0,5.28,2,13.2,3.52,16.28v1.1H453v-1.1c1.54-3.08,3.52-11,3.52-16.28V267.31l-10.12-12.54-33.22,67.1c-2.86,5.72-6.38,12.32-5.28,16.28v1.1h-17.6ZM612.09,323h1.32l-4.62,16.28H542.57v-1.1c1.54-3.08,3.52-11,3.52-16.28V207c0-5.28-2-13.2-3.52-16.28v-1.1h64.24l4.62,16.28h-1.32c-4.4-4.18-17.82-11.66-24.42-11.66h-26.4v61.16h43.78v4.62H559.29v74.58h28.38C594.27,334.63,607.69,327.15,612.09,323Zm83.38-127.16a8.43,8.43,0,0,0,4.18-1.1H701V222h-3.3c-1.1-18.26-11-29-27.5-29-24.42,0-34.76,35-34.76,70.4s7,72.38,32.78,72.38c16.5,0,25.74-14.52,29.48-37.84H703C699.21,322.53,689.31,341,668.19,341c-31.9,0-47.52-38.94-47.52-77.66s19.8-75.46,49.28-75.46C686.45,187.89,690.19,195.81,695.47,195.81Zm110-6.16,4.62,16.5h-1.32c-4.4-4.18-19.58-11.66-24.42-11.66H767.2V321.87c0,5.28,2,13.2,3.52,16.28v1.1H750.48v-1.1c1.54-3.08,3.52-11,3.52-16.28V194.49H737.06c-5.06,0-22,8.58-25.74,11.66H710l5.5-16.5Zm12.77,1.1v-1.1c4,.22,11,.44,15.62.44s7.48-.44,17.6-.44c24.2,0,42,13.42,42,33.66,0,19.58-12.54,29.92-26,35,19.36,3.08,34.76,16.5,34.76,36.3s-11.44,44.66-47.52,44.66H818.25v-1.1c1.54-3.08,3.52-11,3.52-16.28V207C821.77,201.75,819.79,193.83,818.25,190.75ZM835,257.41h14.74c20.24,0,28.6-11.44,28.6-34.32,0-16.94-7.48-28.6-31.24-28.6H835Zm23.1,4.62H835v60.06a50.07,50.07,0,0,0,2.2,12.54h16.94c24.86,0,33-18.92,33-38.72C887.11,275.89,877.43,262,858.07,262ZM982.15,323h1.32l-4.62,16.28H912.63v-1.1c1.54-3.08,3.52-11,3.52-16.28V207c0-5.28-2-13.2-3.52-16.28v-1.1h64.24l4.62,16.28h-1.32c-4.4-4.18-17.82-11.66-24.42-11.66h-26.4v61.16h43.78v4.62H929.35v74.58h28.38C964.33,334.63,977.75,327.15,982.15,323Zm12.33-132.22v-1.1h20.24v1.1c-1.54,3.08-3.52,11-3.52,16.28v48.18h57.2V207c0-5.28-2-13.2-3.52-16.28v-1.1h20.24v1.1c-1.54,3.08-3.52,11-3.52,16.28V321.87c0,5.28,2,13.2,3.52,16.28v1.1h-20.24v-1.1c1.54-3.08,3.52-11,3.52-16.28v-62h-57.2v62c0,5.28,2,13.2,3.52,16.28v1.1H994.48v-1.1c1.54-3.08,3.52-11,3.52-16.28V207C998,201.75,996,193.83,994.48,190.75Zm104.5,0v-1.1h20.24v1.1c-1.54,3.08-3.52,11-3.52,16.28v48.18h57.2V207c0-5.28-2-13.2-3.52-16.28v-1.1h20.24v1.1c-1.54,3.08-3.52,11-3.52,16.28V321.87c0,5.28,2,13.2,3.52,16.28v1.1h-20.24v-1.1c1.54-3.08,3.52-11,3.52-16.28v-62h-57.2v62c0,5.28,2,13.2,3.52,16.28v1.1H1099v-1.1c1.54-3.08,3.52-11,3.52-16.28V207C1102.5,201.75,1100.52,193.83,1099,190.75Zm185.25,103.18c0,20.46-14.74,45.32-47.52,45.32h-33.22v-1.1c1.54-3.08,3.52-11,3.52-16.28V207c0-5.28-2-13.2-3.52-16.28v-1.1h20.24v1.1a45.68,45.68,0,0,0-3.52,16.06V253h16.72C1269.49,253,1284.23,273.47,1284.23,293.93Zm-48.18,40.48c25.08,0,33-20.68,33-40.7s-8.8-36.08-33.88-36.08h-15v76.78Zm57.42-143.66v-1.1h20.24v1.1c-1.54,3.08-3.52,11-3.52,16.28V321.87c0,5.28,2,13.2,3.52,16.28v1.1h-20.24v-1.1c1.54-3.08,3.52-11,3.52-16.28V207C1297,201.75,1295,193.83,1293.47,190.75Zm34.32,0v-1.1h20v1.1c-1.54,3.08-3.52,11-3.52,16.28V325L1403,189.65h16.5v1.1c-1.54,3.08-3.52,11-3.52,16.28V321.87c0,5.28,2,13.2,3.52,16.28v1.1h-20v-1.1c1.54-3.08,3.52-11,3.52-16.28V203.29l-58.74,136h-16.5v-1.1c1.54-3.08,3.52-11,3.52-16.28V207C1331.31,201.75,1329.33,193.83,1327.79,190.75Zm26.62-20.46h9.68c0,8.36,4.4,12.32,11,12.32s11-4,11-12.32h9.68c0,10.78-8.58,16.06-20.46,16.06S1354.41,181.07,1354.41,170.29Z"/></g></g></svg>