<?xml version="1.0" encoding="utf-8"?>
<!-- Generator: Adobe Illustrator 22.1.0, SVG Export Plug-In . SVG Version: 6.00 Build 0)  -->
<svg version="1.1" id="Layer_1" xmlns="http://www.w3.org/2000/svg" xmlns:xlink="http://www.w3.org/1999/xlink" x="0px" y="0px"
	 viewBox="0 0 1920 1080" style="enable-background:new 0 0 1920 1080;" xml:space="preserve">
<g>
	<path d="M149.7,380h-0.4l2.4-9.6h42.1l2.2,9.6h-0.4c-4.1-2.6-9.6-6.3-14-6.3h-4.1v65c0,2.6,1,6.9,1.8,8.7v0.6h-13.6v-0.6
		c1-1.8,2.2-6.1,2.2-8.7v-65h-4.1C160.1,373.7,154,377.3,149.7,380z M292.8,466.7v5.5h-137v-5.5H292.8z M200.1,370.8v-0.4h13v0.4
		c-0.6,1.6-1.8,5.7-1.8,8.9V405h23.4v-25.2c0-3.3-0.6-7.3-2-8.9v-0.4h13.2v0.4c-0.4,1.6-1.6,5.7-1.6,8.9v58.9c0,2.6,1.2,6.9,1.6,8.7
		v0.6h-13.2v-0.6c1.4-1.8,2-6.1,2-8.7v-30.3h-23.4v30.3c0,2.6,1.2,6.9,1.8,8.7v0.6h-13v-0.6c0.8-1.8,1.6-6.1,1.6-8.7v-58.9
		C201.7,376.5,200.9,372.4,200.1,370.8z M292.4,438.9h0.6l-2.4,9.1h-34.1v-0.6c1-1.4,2-5.7,2-8.3v-59.7c0-2.8-1-7.3-2-8.5v-0.4h33.3
		l2.4,9.3h-1c-2.2-2.4-9.8-6.1-13-6.1H268v31.7h19.5v3H268v36.4h11.2C282.6,444.8,290.1,440.9,292.4,438.9z"/>
	<path d="M395.6,518.9c0.4-4-5.3-11.2-9.2-16.3l-46.4-60.1v60.1c0,5.3,2,13.2,3.5,16.3v1.1h-20.2v-1.1c1.5-3.1,3.5-11,3.5-16.3
		V387.8c0-5.3-2-13.2-3.5-16.3v-1.1h20.2v1.1c-1.5,3.1-3.5,11-3.5,16.3v47.5l50.6-52.6c2.9-3.1,5.1-8.8,6.2-12.3h13v0.9l-60.9,62.3
		l66.9,85.4v1.1h-20V518.9z"/>
	<path d="M422.4,371.5v-1.1h20.2v1.1c-1.5,3.1-3.5,11-3.5,16.3V436h57.2v-48.2c0-5.3-2-13.2-3.5-16.3v-1.1h20.2v1.1
		c-1.5,3.1-3.5,11-3.5,16.3v114.8c0,5.3,2,13.2,3.5,16.3v1.1h-20.2v-1.1c1.5-3.1,3.5-11,3.5-16.3v-62h-57.2v62
		c0,5.3,2,13.2,3.5,16.3v1.1h-20.2v-1.1c1.5-3.1,3.5-11,3.5-16.3V387.8C425.9,382.5,424,374.6,422.4,371.5z"/>
	<path d="M611.6,387.8c0-5.3-2-13.2-3.5-16.3v-1.1h14.1v1.1c-1.5,3.1-3.5,11-3.5,16.3v78.1c0,37.8-13.4,55.9-41.8,55.9
		c-28.8,0-44.2-18-44.2-55.9v-78.1c0-5.3-2-13.2-3.5-16.3v-1.1h20.2v1.1c-1.5,3.1-3.5,11-3.5,16.3v75.9c0,32.8,6.6,52.6,31,52.6
		c24,0,34.8-15.8,34.8-50.4V387.8z"/>
	<path d="M632.9,520v-1.1c1.5-3.1,3.5-11,3.5-16.3V387.8c0-5.3-2-13.2-3.5-16.3v-1.1h30.8c31.2,0,58.1,32.6,58.1,73.5
		c0,35.6-22.2,76.1-58.1,76.1H632.9z M649.7,375v140.4h13.6c29.3,0,43.8-37.4,43.8-71.5c0-37.6-16.7-68.9-43.1-68.9H649.7z"/>
	<path d="M829.8,443.9c0,35.6-15.6,77.9-47.7,77.9c-32.6,0-47.7-42.2-47.7-77.9c0-40.9,19.1-75.2,47.7-75.2S829.8,403,829.8,443.9z
		 M749.1,443.9c0,34.1,6.4,73,33,73c26.2,0,33-38.9,33-73c0-37.6-9-70.4-33-70.4C758.3,373.5,749.1,406.3,749.1,443.9z"/>
	<path d="M913.4,503.7h1.3l-4.6,16.3h-73.7v-4.6L897.1,375H865c-6.6,0-20,7.5-24.4,11.7h-1.3l4.6-16.3h66.4v3.7l-60.9,141.2H889
		C895.6,515.4,909,507.9,913.4,503.7z"/>
	<path d="M923.5,371.5v-1.1h20.2v1.1c-1.5,3.1-3.5,11-3.5,16.3V436h57.2v-48.2c0-5.3-2-13.2-3.5-16.3v-1.1h20.2v1.1
		c-1.5,3.1-3.5,11-3.5,16.3v114.8c0,5.3,2,13.2,3.5,16.3v1.1h-20.2v-1.1c1.5-3.1,3.5-11,3.5-16.3v-62h-57.2v62
		c0,5.3,2,13.2,3.5,16.3v1.1h-20.2v-1.1c1.5-3.1,3.5-11,3.5-16.3V387.8C927.1,382.5,925.1,374.6,923.5,371.5z"/>
	<path d="M1100.2,503.7h1.3l-4.6,16.3h-66.2v-1.1c1.5-3.1,3.5-11,3.5-16.3V387.8c0-5.3-2-13.2-3.5-16.3v-1.1h64.2l4.6,16.3h-1.3
		c-4.4-4.2-17.8-11.7-24.4-11.7h-26.4v61.2h43.8v4.6h-43.8v74.6h28.4C1082.4,515.4,1095.8,507.9,1100.2,503.7z"/>
	<path d="M1145.3,446.8l-10.3-5.1c-13.9-6.8-24.6-18.7-24.6-39.4c0-20,14.7-33.7,33.4-33.7c15.2,0,18.5,7.9,23.5,7.9
		c1.8,0,3.3-0.4,4.4-1.1h1.3v27.3h-3.3c-1.1-18.3-10.6-29-25.7-29c-14.7,0-21.1,11-21.1,26c0,13.4,5.1,22.7,18.3,29.5l9.7,5.1
		c19.6,10.1,27.3,22,27.3,46.4c0,24.9-15.8,41.1-37.6,41.1c-20.9,0-33.4-14.5-34.8-43.1h5.3c1.3,26.2,14.1,37.8,29.5,37.8
		c16.9,0,24.4-15,24.4-35.9C1164.9,464.8,1160.5,454.2,1145.3,446.8z"/>
	<path d="M1182.7,386.7h-1.3l4.6-16.3h89.3l4.6,16.3h-1.3c-4.4-4.2-17.8-11.7-24.4-11.7h-16.9v127.6c0,5.3,2,13.2,3.5,16.3v1.1
		h-20.2v-1.1c1.5-3.1,3.5-11,3.5-16.3V375h-16.9C1200.5,375,1187.1,382.5,1182.7,386.7z"/>
	<path d="M1341.5,520h-9l-47.3-148.5v-1.1h18.9v1.1c-1.1,4.4,0.2,15.4,3.1,24.2l33.2,106.9l28.4-102.3c4-14.1,3.3-22.7,1.1-28.8
		v-1.1h14.3v1.1L1341.5,520z"/>
	<path d="M1463.6,503.7h1.3l-4.6,16.3h-66.2v-1.1c1.5-3.1,3.5-11,3.5-16.3V387.8c0-5.3-2-13.2-3.5-16.3v-1.1h64.2l4.6,16.3h-1.3
		c-4.4-4.2-17.8-11.7-24.4-11.7h-26.4v61.2h43.8v4.6h-43.8v74.6h28.4C1445.8,515.4,1459.2,507.9,1463.6,503.7z"/>
	<path d="M1475.9,371.5v-1.1h13.6l69.1,123.4v-79.6c0-5.3-2-39.6-3.5-42.7v-1.1h12.8v1.1c-1.5,3.1-3.5,37.4-3.5,42.7V520h-5.7
		l-69.1-123.4v79.6c0,5.3,2,39.6,3.5,42.7v1.1h-12.8v-1.1c1.5-3.1,3.5-37.4,3.5-42.7v-88.4C1483.9,384.7,1477.5,374.6,1475.9,371.5z
		"/>
	<path d="M1579.8,371.5v-1.1h13.6l69.1,123.4v-79.6c0-5.3-2-39.6-3.5-42.7v-1.1h12.8v1.1c-1.5,3.1-3.5,37.4-3.5,42.7V520h-5.7
		l-69.1-123.4v79.6c0,5.3,2,39.6,3.5,42.7v1.1h-12.8v-1.1c1.5-3.1,3.5-37.4,3.5-42.7v-88.4C1587.7,384.7,1581.3,374.6,1579.8,371.5z
		"/>
	<path d="M1737.9,520h-20.2v-1.1c1.5-3.1,3.5-11,3.5-16.3v-37.8l-42.2-94.4h19.8v1.1c-1.1,4.4,0.9,14.7,5.3,24.2l27.3,60.1
		l23.3-55.4c6.2-14.5,5.3-24,3.3-28.8v-1.1h14.7v1.1l-38.3,90.4v40.7c0,5.3,2,13.2,3.5,16.3V520z"/>
	<path d="M767.1,565.1c1.5,0,3.1-0.4,4.2-1.1h1.3v27.3h-3.3c-1.1-18.3-11-29-27.5-29c-24.4,0-34.8,35-34.8,70.4
		c0,35.4,7,72.4,32.8,72.4c16.5,0,25.7-14.5,29.5-37.8h5.3c-3.7,24.6-13.6,43.1-34.8,43.1c-31.9,0-47.5-38.9-47.5-77.7
		c0-38.7,19.8-75.5,49.3-75.5C758.1,557.2,761.9,565.1,767.1,565.1z"/>
	<path d="M786.1,560.1V559h20.2v1.1c-1.5,3.1-3.5,11-3.5,16.3v114.8c0,5.3,2,13.2,3.5,16.3v1.1h-20.2v-1.1c1.5-3.1,3.5-11,3.5-16.3
		V576.4C789.6,571.1,787.6,563.2,786.1,560.1z"/>
	<path d="M820.6,560.1V559h13.6l69.1,123.4v-79.6c0-5.3-2-39.6-3.5-42.7V559h12.8v1.1c-1.5,3.1-3.5,37.4-3.5,42.7v105.8h-5.7
		l-69.1-123.4v79.6c0,5.3,2,39.6,3.5,42.7v1.1H825v-1.1c1.5-3.1,3.5-37.4,3.5-42.7v-88.4C828.5,573.3,822.1,563.2,820.6,560.1z"/>
	<path d="M996.4,692.3h1.3l-4.6,16.3h-66.2v-1.1c1.5-3.1,3.5-11,3.5-16.3V576.4c0-5.3-2-13.2-3.5-16.3V559h64.2l4.6,16.3h-1.3
		c-4.4-4.2-17.8-11.7-24.4-11.7h-26.4v61.2h43.8v4.6h-43.8V704h28.4C978.5,704,992,696.5,996.4,692.3z"/>
	<path d="M1010.9,560.1V559h18.5l35.2,119l36.3-119h17.2v1.1c-1.5,3.1-3.5,11-3.5,16.3v114.8c0,5.3,2,13.2,3.5,16.3v1.1h-20.2v-1.1
		c1.5-3.1,3.5-11,3.5-16.3V577L1061,708.6h-1.3l-39.8-135.3v117.9c0,5.3,2.6,13.2,4.2,16.3v1.1h-13.2v-1.1c1.5-3.1,3.5-11,3.5-16.3
		V576.4C1014.4,571.1,1012.4,563.2,1010.9,560.1z"/>
	<path d="M1135.6,708.6h-13.4l-0.2-1.1l47.5-150.3h9l54.3,150.3v1.1h-19.8v-1.1c1.1-4.4,0-15.4-3.1-24.2l-13.6-37.4h-48.6
		l-10.1,32.8c-4.4,14.1-4.2,22.7-2,28.8V708.6z M1194.6,641l-24.6-68l-20.9,68H1194.6z"/>
</g>
</svg>
