<svg xmlns="http://www.w3.org/2000/svg" width="206.464" height="52.638" viewBox="0 0 206.464 52.638">
  <g id="Group_285" data-name="Group 285" transform="translate(-696.768 -25.201)">
    <path id="Path_145" data-name="Path 145" d="M747.5,47.055c.064-.576-.768-1.632-1.344-2.368L739.4,35.952v8.735a6.836,6.836,0,0,0,.512,2.368v.16h-2.944v-.16a6.836,6.836,0,0,0,.512-2.368v-16.7a6.836,6.836,0,0,0-.512-2.368v-.16h2.944v.16a6.836,6.836,0,0,0-.512,2.368V34.9l7.36-7.647a5.241,5.241,0,0,0,.9-1.792h1.888v.128L740.68,34.64l9.727,12.415v.16H747.5Zm3.937-21.438v-.16h2.911v.16a6.836,6.836,0,0,0-.512,2.368v17.15l8.544-19.678h2.4v.16a6.836,6.836,0,0,0-.512,2.368v16.7a6.836,6.836,0,0,0,.512,2.368v.16h-2.912v-.16a6.836,6.836,0,0,0,.512-2.368V27.441l-8.544,19.774h-2.4v-.16a6.836,6.836,0,0,0,.512-2.368v-16.7A6.836,6.836,0,0,0,751.433,25.617Zm15.391,0v-.16h2.944v.16a6.836,6.836,0,0,0-.512,2.368v7.007h8.319V27.985a6.836,6.836,0,0,0-.512-2.368v-.16h2.944v.16a6.836,6.836,0,0,0-.512,2.368v16.7a6.836,6.836,0,0,0,.512,2.368v.16h-2.944v-.16a6.836,6.836,0,0,0,.512-2.368V35.664h-8.319v9.023a6.836,6.836,0,0,0,.512,2.368v.16h-2.944v-.16a6.836,6.836,0,0,0,.512-2.368v-16.7A6.836,6.836,0,0,0,766.824,25.617ZM781.64,36.528c0-5.184,2.272-11.327,6.944-11.327,4.735,0,6.943,6.143,6.943,11.327,0,5.952-2.784,10.943-6.943,10.943S781.64,42.48,781.64,36.528Zm11.743,0c0-4.96-.928-10.623-4.8-10.623-3.808,0-4.8,5.663-4.8,10.623,0,5.472,1.312,10.239,4.8,10.239C792.039,46.767,793.383,42,793.383,36.528Zm15.648-11.071.672,2.4h-.192a9.057,9.057,0,0,0-3.552-1.7h-2.5V44.687a6.836,6.836,0,0,0,.512,2.368v.16h-2.943v-.16a6.836,6.836,0,0,0,.512-2.368V26.161H799.08a11.647,11.647,0,0,0-3.744,1.7h-.192l.8-2.4ZM821,44.847h.192l-.671,2.368h-9.632v-.16a6.836,6.836,0,0,0,.512-2.368v-16.7a6.836,6.836,0,0,0-.512-2.368v-.16h9.344l.671,2.368h-.191a7.65,7.65,0,0,0-3.552-1.7h-3.84v8.895h6.368V35.7H813.32V46.543h4.128A7.643,7.643,0,0,0,821,44.847Zm3.041,2.368h-1.952l-.032-.16L828.968,25.2h1.312l7.9,21.854v.16H835.3v-.16a7.955,7.955,0,0,0-.448-3.52L832.871,38.1H825.8l-1.472,4.767a6.563,6.563,0,0,0-.288,4.192Zm8.575-9.823L829.032,27.5l-3.04,9.887Zm16.928-11.935.672,2.4h-.192a9.057,9.057,0,0,0-3.552-1.7h-2.5V44.687a6.836,6.836,0,0,0,.512,2.368v.16h-2.943v-.16a6.837,6.837,0,0,0,.511-2.368V26.161h-2.463a11.648,11.648,0,0,0-3.744,1.7h-.192l.8-2.4Zm1.857.16v-.16c.576.032,1.6.064,2.272.064s2.016-.064,3.488-.064c3.519,0,6.079,1.952,6.079,5.119,0,3.52-2.56,5.5-7.455,5.5h-1.952v8.639a6.644,6.644,0,0,0,.512,2.336v.16H851.4v-.16a6.836,6.836,0,0,0,.512-2.368v-16.7A6.836,6.836,0,0,0,851.4,25.617Zm2.432.544v9.247h1.952c3.776,0,5.279-1.76,5.279-4.64,0-2.911-1.727-4.607-4.543-4.607Z" fill="#fff"/>
    <path id="Path_146" data-name="Path 146" d="M708.32,74.543v-.16a8.354,8.354,0,0,0-1.12-3.519l-3.776-6.72L700,70.192c-1.184,2.047-1.12,3.295-.9,4.191v.16h-2.3l-.032-.16,6.208-11.071-5.92-10.527h3.1v.16a7.428,7.428,0,0,0,1.056,3.52l3.072,5.439,2.752-4.767c1.152-2.016,1.152-3.3.928-4.192v-.16h2.5l-.064.16L704.736,62.7l6.687,11.839Zm4.544-2.624a5.215,5.215,0,0,1,.224-1.439h.864a4.688,4.688,0,0,0-.224,1.439c0,.96.416,1.792,1.312,1.792,1.632,0,2.432-2.047,3.392-4.639l.1-.288-6.624-16h2.848v.16a7.473,7.473,0,0,0,.672,3.52l4.032,9.855,3.488-9.183a6.29,6.29,0,0,0,.448-4.192v-.16h2.047l.032.16L719.2,69.392c-1.184,3.135-2.016,5.151-4.192,5.151C713.472,74.543,712.864,73.391,712.864,71.919Zm11.169,1.92c2.207-.736,3.583-6.3,3.807-12.575l.224-6.015a2.536,2.536,0,0,0-1.312-2.3v-.16H736.9v.16a6.836,6.836,0,0,0-.512,2.368v16.7a7.284,7.284,0,0,0,.32,1.824h1.472l.672,4h-.192c-.992-1.664-2.336-3.3-3.584-3.3H726.08c-.736,0-2.239,1.568-3.359,3.3h-.192l.8-4Zm1.567,0h8.864V53.457h-5.408l-.352,7.871C728.448,66.992,727.488,71.951,725.6,73.839Zm14.081-9.983c0-5.184,2.272-11.327,6.943-11.327,4.736,0,6.944,6.143,6.944,11.327,0,5.952-2.784,10.943-6.944,10.943S739.681,69.808,739.681,63.856Zm11.743,0c0-4.96-.928-10.623-4.8-10.623-3.807,0-4.8,5.663-4.8,10.623,0,5.472,1.312,10.239,4.8,10.239C750.08,74.1,751.424,69.328,751.424,63.856Zm2.113,10.527,6.944-13.663-6.3-7.807v-.128h2.016a3.685,3.685,0,0,0,.544,1.952l6.432,8.063V55.313a6.836,6.836,0,0,0-.512-2.368v-.16h2.911v.16a6.836,6.836,0,0,0-.512,2.368v7.519l6.432-8.1a3.684,3.684,0,0,0,.544-1.952h2.016v.128l-6.3,7.807,6.944,13.663v.16H772.1v-.16c.16-.576-.352-1.536-.768-2.368L766.5,62.256l-1.44,1.824v7.935a6.836,6.836,0,0,0,.512,2.368v.16h-2.911v-.16a6.836,6.836,0,0,0,.512-2.368V64.08L761.7,62.256l-4.832,9.759c-.416.832-.928,1.792-.768,2.368v.16h-2.56Zm32.256-2.208h.192l-.672,2.368h-9.632v-.16a6.836,6.836,0,0,0,.512-2.368v-16.7a6.836,6.836,0,0,0-.512-2.368v-.16h9.344l.672,2.368h-.192a7.651,7.651,0,0,0-3.552-1.7h-3.84v8.9h6.368v.672h-6.368V73.871h4.128A7.651,7.651,0,0,0,785.793,72.175Zm12.128-18.494a1.225,1.225,0,0,0,.608-.16h.192v3.967h-.48c-.16-2.655-1.6-4.223-4-4.223-3.552,0-5.056,5.087-5.056,10.239s1.024,10.527,4.768,10.527c2.4,0,3.744-2.112,4.288-5.5h.767c-.543,3.583-1.983,6.271-5.055,6.271-4.64,0-6.912-5.663-6.912-11.3s2.88-10.975,7.168-10.975C796.609,52.529,797.153,53.681,797.921,53.681Zm16-.9.672,2.4H814.4a9.057,9.057,0,0,0-3.552-1.7h-2.5V72.015a6.836,6.836,0,0,0,.512,2.368v.16h-2.944v-.16a6.836,6.836,0,0,0,.512-2.368V53.489h-2.464a11.642,11.642,0,0,0-3.743,1.7h-.192l.8-2.4Zm1.857.16v-.16c.576.032,1.6.064,2.272.064s1.088-.064,2.559-.064c3.52,0,6.112,1.952,6.112,4.9a5.25,5.25,0,0,1-3.776,5.088c2.816.448,5.056,2.4,5.056,5.28s-1.664,6.5-6.912,6.5h-5.311v-.16a6.836,6.836,0,0,0,.512-2.368v-16.7A6.836,6.836,0,0,0,815.778,52.945Zm2.432,9.695h2.143c2.944,0,4.16-1.664,4.16-4.992,0-2.463-1.088-4.159-4.543-4.159h-1.76Zm3.359.672H818.21v8.735a7.281,7.281,0,0,0,.32,1.824h2.463c3.616,0,4.8-2.751,4.8-5.631C825.793,65.328,824.385,63.312,821.569,63.312Zm18.048,8.863h.192l-.672,2.368h-9.631v-.16a6.836,6.836,0,0,0,.512-2.368v-16.7a6.836,6.836,0,0,0-.512-2.368v-.16h9.343l.672,2.368h-.192a7.65,7.65,0,0,0-3.552-1.7h-3.839v8.9H838.3v.672h-6.367V73.871h4.127A7.651,7.651,0,0,0,839.617,72.175Zm1.793-19.23v-.16h2.944v.16a6.836,6.836,0,0,0-.512,2.368V62.32h8.319V55.313a6.836,6.836,0,0,0-.512-2.368v-.16h2.944v.16a6.836,6.836,0,0,0-.512,2.368v16.7a6.836,6.836,0,0,0,.512,2.368v.16h-2.944v-.16a6.836,6.836,0,0,0,.512-2.368V62.992h-8.319v9.023a6.836,6.836,0,0,0,.512,2.368v.16H841.41v-.16a6.836,6.836,0,0,0,.512-2.368v-16.7A6.836,6.836,0,0,0,841.41,52.945Zm15.2,0v-.16h2.944v.16a6.836,6.836,0,0,0-.512,2.368V62.32h8.32V55.313a6.836,6.836,0,0,0-.512-2.368v-.16h2.944v.16a6.834,6.834,0,0,0-.512,2.368v16.7a6.834,6.834,0,0,0,.512,2.368v.16h-2.944v-.16a6.836,6.836,0,0,0,.512-2.368V62.992h-8.32v9.023a6.836,6.836,0,0,0,.512,2.368v.16h-2.944v-.16a6.836,6.836,0,0,0,.512-2.368v-16.7A6.836,6.836,0,0,0,856.609,52.945Zm26.943,15.007a6.559,6.559,0,0,1-6.911,6.591h-4.832v-.16a6.836,6.836,0,0,0,.512-2.368v-16.7a6.836,6.836,0,0,0-.512-2.368v-.16h2.944v.16a6.644,6.644,0,0,0-.512,2.336V62h2.432C881.408,62,883.552,64.976,883.552,67.952Zm-7.007,5.887c3.648,0,4.8-3.007,4.8-5.919s-1.279-5.248-4.927-5.248h-2.176V73.839ZM884.9,52.945v-.16h2.944v.16a6.836,6.836,0,0,0-.512,2.368v16.7a6.836,6.836,0,0,0,.512,2.368v.16H884.9v-.16a6.836,6.836,0,0,0,.512-2.368v-16.7A6.836,6.836,0,0,0,884.9,52.945Zm4.992,0v-.16H892.8v.16a6.836,6.836,0,0,0-.512,2.368v17.15l8.544-19.678h2.4v.16a6.836,6.836,0,0,0-.512,2.368v16.7a6.836,6.836,0,0,0,.512,2.368v.16H900.32v-.16a6.836,6.836,0,0,0,.512-2.368V54.769l-8.544,19.774h-2.4v-.16a6.836,6.836,0,0,0,.512-2.368v-16.7A6.836,6.836,0,0,0,889.888,52.945Zm3.872-2.976h1.408c0,1.216.64,1.792,1.6,1.792s1.6-.576,1.6-1.792h1.408c0,1.568-1.248,2.336-2.976,2.336S893.76,51.537,893.76,49.969Z" fill="#fff"/>
  </g>
</svg>
