<svg xmlns="http://www.w3.org/2000/svg" width="189.982" height="40" viewBox="0 0 189.982 40">
  <g id="logo-en.inline" transform="translate(-149.299 -368.6)">
    <path id="Union_2" data-name="Union 2" d="M63.546,30.907c0-4.529,2.318-8.836,5.77-8.836,1.931,0,2.376.925,2.984.925a.96.96,0,0,0,.492-.129h.152v3.195h-.386c-.129-2.142-1.287-3.394-3.218-3.394-2.855,0-4.072,4.1-4.072,8.239s.819,8.473,3.838,8.473c1.931,0,3.008-1.7,3.452-4.424h.62C72.744,37.835,71.586,40,69.1,40,65.372,40,63.546,35.448,63.546,30.907Zm60.937,8.882v-.129a6.373,6.373,0,0,0-.363-2.832l-1.592-4.377H116.84l-1.182,3.839a5.278,5.278,0,0,0-.234,3.37v.129h-1.568l-.023-.129,5.559-17.589h1.053L126.8,39.661v.129ZM117,31.878h5.325l-2.879-7.958Zm-5.992,7.911v-.129a5.626,5.626,0,0,0,.41-1.907V24.388l-4.728,15.4h-.152l-4.658-15.834v13.8a5.279,5.279,0,0,0,.492,1.907v.129h-1.545v-.129a5.626,5.626,0,0,0,.41-1.907V24.318a5.626,5.626,0,0,0-.41-1.907v-.129H103l4.119,13.926,4.248-13.926h2.013v.129a5.627,5.627,0,0,0-.41,1.907V37.753a5.627,5.627,0,0,0,.41,1.907v.129ZM91,39.789v-.129a5.626,5.626,0,0,0,.41-1.907V24.318A5.626,5.626,0,0,0,91,22.411v-.129h7.513l.538,1.907H98.9a6.138,6.138,0,0,0-2.856-1.369h-3.09v7.162h5.126v.538H92.955v8.73h3.324a6.192,6.192,0,0,0,2.856-1.369h.152l-.538,1.908Zm-2.75,0L80.164,25.348v9.315a42.73,42.73,0,0,0,.41,5v.129h-1.5v-.129a42.724,42.724,0,0,0,.41-5V24.318a9.509,9.509,0,0,0-.925-1.907v-.129h1.592l8.087,14.441V27.408a42.729,42.729,0,0,0-.41-5v-.129h1.5v.129a42.839,42.839,0,0,0-.41,5V39.789Zm-13.727,0v-.129a5.627,5.627,0,0,0,.41-1.907V24.318a5.627,5.627,0,0,0-.41-1.907v-.129h2.364v.129a5.626,5.626,0,0,0-.41,1.907V37.753a5.626,5.626,0,0,0,.41,1.907v.129Zm37.414-26.9h.62c.153,3.066,1.65,4.424,3.452,4.424,1.978,0,2.856-1.755,2.856-4.2a3.835,3.835,0,0,0-2.305-3.956l-1.205-.6a4.8,4.8,0,0,1-2.879-4.611A3.809,3.809,0,0,1,116.384,0c1.779,0,2.165.925,2.75.925A.957.957,0,0,0,119.649.8h.152V3.991h-.386C119.286,1.849,118.174.6,116.407.6c-1.72,0-2.469,1.287-2.469,3.043a3.519,3.519,0,0,0,2.142,3.452l1.135.6c2.294,1.182,3.195,2.575,3.195,5.43,0,2.914-1.849,4.81-4.4,4.81C113.564,17.929,112.1,16.232,111.936,12.885ZM68.473,8.812c0-4.786,2.236-8.8,5.582-8.8s5.582,4.014,5.582,8.8c0,4.166-1.825,9.116-5.582,9.116C70.24,17.929,68.473,12.99,68.473,8.812Zm1.721,0c0,3.991.749,8.543,3.862,8.543,3.066,0,3.862-4.552,3.862-8.543,0-4.4-1.053-8.239-3.862-8.239C71.27.573,70.193,4.412,70.193,8.812ZM44.868,11.387V2.247a5.627,5.627,0,0,0-.41-1.908V.211h2.364V.339a5.627,5.627,0,0,0-.41,1.908v8.882c0,3.839.773,6.156,3.628,6.156,2.809,0,4.072-1.849,4.072-5.9V2.247H54.1a5.627,5.627,0,0,0-.41-1.908V.211h1.65V.339a5.626,5.626,0,0,0-.41,1.908v9.14c0,4.424-1.568,6.542-4.891,6.542C46.67,17.929,44.868,15.822,44.868,11.387ZM28.847,17.73v-.14h-.023c.046-.468-.621-1.311-1.077-1.907l-5.43-7.033v7.033a5.625,5.625,0,0,0,.41,1.907v.129H20.363v-.129a5.625,5.625,0,0,0,.41-1.907V2.247a5.627,5.627,0,0,0-.41-1.908V.211h2.364V.339a5.627,5.627,0,0,0-.41,1.908V7.806L28.238,1.65A4.168,4.168,0,0,0,28.964.211h1.521V.316L23.359,7.607,31.188,17.6v.129Zm157.063-.012h-2.364v-.129a5.625,5.625,0,0,0,.41-1.907V11.258L179.017.211h2.317V.339a5.5,5.5,0,0,0,.62,2.832l3.2,7.033,2.727-6.483a4.486,4.486,0,0,0,.386-3.37V.222h1.72V.351L185.5,10.93v4.763a5.624,5.624,0,0,0,.41,1.907Zm-8.812,0L169.011,3.277v9.315a42.73,42.73,0,0,0,.409,5v.129h-1.5v-.129a42.835,42.835,0,0,0,.41-5V2.247a9.507,9.507,0,0,0-.925-1.908V.211H169l8.087,14.441V5.337a42.726,42.726,0,0,0-.41-5V.211h1.5V.339a42.73,42.73,0,0,0-.41,5V17.718Zm-12.16,0L156.852,3.277v9.315a42.836,42.836,0,0,0,.409,5v.129h-1.5v-.129a42.721,42.721,0,0,0,.41-5V2.247a8.4,8.4,0,0,0-.925-1.908V.211h1.592l8.087,14.441V5.337a42.73,42.73,0,0,0-.41-5V.211h1.5V.339a42.73,42.73,0,0,0-.41,5V17.718Zm-19.262,0v-.129a5.625,5.625,0,0,0,.41-1.907V2.247a5.627,5.627,0,0,0-.41-1.908V.211h7.513l.539,1.908h-.152A6.134,6.134,0,0,0,150.72.749h-3.09V7.911h5.126v.538H147.63v8.73h3.324a6.128,6.128,0,0,0,2.855-1.369h.153l-.539,1.907Zm-7.209,0L132.931.339V.211h2.212V.339a6.733,6.733,0,0,0,.363,2.832l3.885,12.51L142.715,3.71a5.394,5.394,0,0,0,.129-3.37V.211h1.673V.339l-5,17.379Zm-13.1,0v-.129a5.626,5.626,0,0,0,.41-1.907V.749H123.8a6.118,6.118,0,0,0-2.868,1.369h-.152l.538-1.908h10.451l.538,1.908h-.152A6.135,6.135,0,0,0,129.3.749h-1.978V15.682a5.625,5.625,0,0,0,.41,1.907v.129Zm-22.223,0v-.129a5.625,5.625,0,0,0,.41-1.907V2.247a5.627,5.627,0,0,0-.41-1.908V.211h7.513l.538,1.908h-.152A6.13,6.13,0,0,0,108.191.749H105.1V7.911h5.126v.538H105.1v8.73h3.324a6.128,6.128,0,0,0,2.855-1.369h.152l-.538,1.907Zm-4.307,0v-.129a5.625,5.625,0,0,0,.41-1.907V8.426H92.557v7.256a5.638,5.638,0,0,0,.409,1.907v.129H90.6v-.129a5.638,5.638,0,0,0,.409-1.907V2.247A5.123,5.123,0,0,0,90.6.339V.211h2.363V.339a5.64,5.64,0,0,0-.409,1.908V7.888h6.694V2.247a5.626,5.626,0,0,0-.41-1.908V.211h2.364V.339a5.627,5.627,0,0,0-.41,1.908V15.682a5.626,5.626,0,0,0,.41,1.907v.129Zm-18.432,0V17.18L87.513.749H83.756A6.13,6.13,0,0,0,80.9,2.118h-.152L81.287.211h7.77V.644L81.93,17.168h4.635A6,6,0,0,0,89.42,15.81h.152l-.538,1.907Zm-23.815,0v-.129A5.638,5.638,0,0,0,57,15.682V2.247A5.64,5.64,0,0,0,56.595.339V.211h3.6c3.651,0,6.8,3.815,6.8,8.6,0,4.166-2.6,8.906-6.8,8.906Zm1.966-.538h1.592c3.429,0,5.126-4.377,5.126-8.367,0-4.4-1.955-8.063-5.044-8.063H58.561ZM40.2,17.718v-.129a5.625,5.625,0,0,0,.41-1.907V8.426H33.914v7.256a5.626,5.626,0,0,0,.41,1.907v.129H31.96v-.129a5.625,5.625,0,0,0,.41-1.907V2.247A5.368,5.368,0,0,0,31.96.339V.211h2.364V.339a5.627,5.627,0,0,0-.41,1.908V7.888h6.694V2.247A5.626,5.626,0,0,0,40.2.339V.211h2.365V.339a5.626,5.626,0,0,0-.41,1.908V15.682a5.625,5.625,0,0,0,.41,1.907v.129ZM.761,12.124V11.48H16.794v.644ZM12.545,9.292v-.07a2.286,2.286,0,0,0,.234-.971V1.264a2.226,2.226,0,0,0-.234-.995V.222h3.9l.28,1.088h-.117A3.152,3.152,0,0,0,15.084.6H13.891v3.71h2.283v.351H13.891v4.26H15.2a3.634,3.634,0,0,0,1.545-.691h.07l-.281,1.065Zm-2.785,0v-.07A2.046,2.046,0,0,0,9.994,8.2V4.658H7.256V8.2a4.111,4.111,0,0,0,.211,1.018v.07H5.945v-.07A3.293,3.293,0,0,0,6.132,8.2V1.311A2.984,2.984,0,0,0,5.945.257V.211H7.466V.257A3.523,3.523,0,0,0,7.256,1.3V4.26H9.994V1.311A1.885,1.885,0,0,0,9.76.269V.222H11.3V.269a4.644,4.644,0,0,0-.187,1.042V8.2A5.649,5.649,0,0,0,11.3,9.222v.07Zm-7.841,0v-.07A2.722,2.722,0,0,0,2.177,8.2V.6H1.7a4.209,4.209,0,0,0-1.65.737H0L.281.211H5.208l.258,1.124H5.418A3.734,3.734,0,0,0,3.78.6H3.3V8.2a3.274,3.274,0,0,0,.21,1.018v.07Z" transform="translate(149.299 368.6)" fill="currentColor"/>
  </g>
</svg>
