<svg xmlns="http://www.w3.org/2000/svg" viewBox="0 0 217.33 50.73"><defs><style>.cls-1{fill:#fff;}</style></defs><title>Asset 5</title><g id="Layer_2" data-name="Layer 2"><g id="Layout"><path class="cls-1" d="M14.62,47.43,8,35.62l5.66-9.79.06-.16H11.33v.16c.22.9.22,2.18-.93,4.19L7.58,35l-3.16-5.6a7,7,0,0,1-1-3.52v-.16H.32l5.89,10.5L0,47.27l0,.16H2.27v-.16c-.22-.9-.29-2.14.9-4.19L6.66,37l3.8,6.78a7.93,7.93,0,0,1,1,3.52v.16Zm4.07,0c1.95,0,2.88-2,4.38-6l5.66-15.55,0-.16H26.85v.16A6.53,6.53,0,0,1,26.4,30l-3.33,9.19-4.38-9.86A7.07,7.07,0,0,1,18,25.83v-.16H14.94l7.23,16c-1.24,3.39-2,5-3.35,5a1.49,1.49,0,0,1-1.38-1.63A2.31,2.31,0,0,1,19,43l-.29-.61a2.93,2.93,0,0,0-2.08,2.79,2.11,2.11,0,0,0,2,2.3m9.24-.71-.48,4h.2c.86-1.73,1.92-3.3,2.65-3.3H40.83c1.25,0,1.92,1.63,2.59,3.3h.19l-.35-4H41.5a7.25,7.25,0,0,1-.32-1.82V28.2a6.94,6.94,0,0,1,.51-2.37v-.16H30.78v.16a2.85,2.85,0,0,1,1.47,2.37l-.12,7.71c-.1,6.27-2.08,10.46-3.75,10.81Zm5.22-10.91.16-9.47h5.95V44.9a7.25,7.25,0,0,1-.32,1.82H30.11c1.66-1.56,3-5.59,3-10.91m18.4-10.4c-4.16,0-6.95,5-6.95,11,0,5.18,2.21,11.32,6.95,11.32s6.94-6.14,6.94-11.32c0-5.95-2.78-10.95-6.94-10.95m0,.71c3.49,0,4.8,4.77,4.8,10.24,0,5-1,10.62-4.8,10.62s-4.8-5.66-4.8-10.62c0-5.47,1.34-10.24,4.8-10.24m8.09,21.31H62.4v-.16a3.45,3.45,0,0,1,.79-2.37l6.34-9.6,1.12,1.28V44.9a6.94,6.94,0,0,1-.51,2.37v.16h2.94v-.16a6.94,6.94,0,0,1-.51-2.37V36.61l1.15-1.31,6,9.6a3.63,3.63,0,0,1,.77,2.37v.16h2.81v-.16L74.87,34l3.81-4.32,4.19-3.87v-.13H80.7a25.38,25.38,0,0,1-2.59,3.62l-5.54,6.49V28.2a6.94,6.94,0,0,1,.51-2.37v-.16H70.14v.16a6.94,6.94,0,0,1,.51,2.37v7.55l-5.53-6.46a24.66,24.66,0,0,1-2.6-3.62H60.35v.13l4.19,3.87,3.87,4.38L59.64,47.27ZM85,28.2V44.9a6.72,6.72,0,0,1-.51,2.37v.16h9.63l.67-2.78h-.12c-.64.76-2,2.11-2.66,2.11H86.87V35.91h6.37v-.67H86.87v-8.9h4.74c.77,0,2.11,1.35,2.72,2.11h.13l-.67-2.78H84.44v.16A6.72,6.72,0,0,1,85,28.2m23.23,2.21h.45v-4h-.19a1.45,1.45,0,0,1-.74.16c-.64,0-1.85-1.19-3.55-1.19-4.29,0-7.13,5.35-7.13,11,0,4.86,2.3,11.29,7,11.29,3.17,0,4.55-2.65,5.09-6.27h-.73c-.55,3.4-1.92,5.54-4.32,5.54-3.84,0-5-5.92-5-10.56,0-5.15,1.5-10.24,5.05-10.24,2.27,0,3.62,1.44,4,4.26m3.59-4.74-.8,2.4h.19a11.61,11.61,0,0,1,3.74-1.7h2.47V44.9a6.94,6.94,0,0,1-.51,2.37v.16h2.94v-.16a6.72,6.72,0,0,1-.51-2.37V26.37h2.49a9,9,0,0,1,3.55,1.7h.2l-.68-2.4Zm16.09,2.53V44.9a6.94,6.94,0,0,1-.51,2.37v.16h5.31c5.25,0,6.91-3.62,6.91-6.5s-2.24-4.83-5-5.28a5.24,5.24,0,0,0,3.77-5.08c0-2.95-2.59-4.9-6.11-4.9-1.47,0-1.89.06-2.56.06s-1.69,0-2.27-.06v.16a6.94,6.94,0,0,1,.51,2.37m1.92-1.76h1.76c3.46,0,4.55,1.63,4.55,4.09,0,3.33-1.22,5-4.16,5h-2.15Zm7.59,14.69c0,2.88-1.19,5.63-4.8,5.63H130.1a7.33,7.33,0,0,1-.32-1.83V36.2h3.36c2.82,0,4.23,2,4.23,4.93M142.8,28.2V44.9a6.72,6.72,0,0,1-.51,2.37v.16h9.63l.68-2.78h-.13c-.64.76-1.95,2.11-2.66,2.11h-5.08V35.91h6.36v-.67h-6.36v-8.9h4.73c.77,0,2.11,1.35,2.72,2.11h.13l-.67-2.78h-9.35v.16a6.72,6.72,0,0,1,.51,2.37m12.55,0V44.9a6.94,6.94,0,0,1-.51,2.37v.16h2.94v-.16a6.94,6.94,0,0,1-.51-2.37v-9h8.32v9a6.7,6.7,0,0,1-.52,2.37v.16h3v-.16a6.94,6.94,0,0,1-.51-2.37V28.2a6.94,6.94,0,0,1,.51-2.37v-.16h-3v.16a6.7,6.7,0,0,1,.52,2.37v7h-8.32v-7a6.94,6.94,0,0,1,.51-2.37v-.16h-2.94v.16a6.94,6.94,0,0,1,.51,2.37m15.42,0V44.9a6.94,6.94,0,0,1-.51,2.37v.16h2.94v-.16a6.94,6.94,0,0,1-.51-2.37v-9H181v9a6.94,6.94,0,0,1-.51,2.37v.16h2.94v-.16a6.94,6.94,0,0,1-.51-2.37V28.2a6.94,6.94,0,0,1,.51-2.37v-.16H180.5v.16A6.94,6.94,0,0,1,181,28.2v7h-8.32v-7a6.94,6.94,0,0,1,.51-2.37v-.16h-2.94v.16a6.94,6.94,0,0,1,.51,2.37m15.52,16.7a6.94,6.94,0,0,1-.51,2.37v.16c.57,0,1.6-.06,2.27-.06s2,.06,3.49.06c3.39,0,6-3.23,6-6.4,0-3.52-2.56-6.14-7.33-6.14h-1.95V28.17a6.76,6.76,0,0,1,.51-2.34v-.16h-2.94v.16a6.94,6.94,0,0,1,.51,2.37Zm13-16.7V44.9a6.94,6.94,0,0,1-.51,2.37v.16h2.94v-.16a6.94,6.94,0,0,1-.51-2.37V28.2a6.94,6.94,0,0,1,.51-2.37v-.16h-2.94v.16a6.94,6.94,0,0,1,.51,2.37M188.21,46.66V35.56h1.95c3.78,0,5.12,2.4,5.12,5.28s-1.57,5.82-4.38,5.82Zm21.57-24.25h-1.54a2.68,2.68,0,0,0,3,2.72c1.4,0,2.17-1,2.46-2.82h-.54c-.13,1.44-.8,2.14-1.73,2.14s-1.57-.83-1.63-2m-5.35,5.88V45a6.94,6.94,0,0,1-.51,2.37v.15h2.43l8.55-20.09V45a6.7,6.7,0,0,1-.52,2.37v.15h3v-.15a6.7,6.7,0,0,1-.52-2.37V28.29a6.64,6.64,0,0,1,.52-2.36v-.16H214.9l-8.55,19.84V28.29a6.88,6.88,0,0,1,.51-2.36v-.16h-2.94v.16a6.88,6.88,0,0,1,.51,2.36"/><path class="cls-1" d="M63.74,22v-.16L54,9.44,62.88.38V.26H61.56L60.41,1.82,52.73,9.89V2.78A6.88,6.88,0,0,1,53.24.42V.26H50.3V.42a6.88,6.88,0,0,1,.51,2.36V19.49a7,7,0,0,1-.51,2.37V22h2.94v-.16a7,7,0,0,1-.51-2.37V10.75L61.4,22ZM65.69,2.78V19.49a7,7,0,0,1-.51,2.37V22h2.43l8.54-20.1V19.49a6.77,6.77,0,0,1-.51,2.37V22h3v-.16a6.76,6.76,0,0,1-.52-2.37V2.78A6.64,6.64,0,0,1,78.59.42V.26H76.15L67.61,20.09V2.78A6.88,6.88,0,0,1,68.12.42V.26H65.18V.42a6.88,6.88,0,0,1,.51,2.36m15.65,0V19.49a7,7,0,0,1-.51,2.37V22h2.94v-.16a7,7,0,0,1-.51-2.37v-9h8.32v9a6.76,6.76,0,0,1-.52,2.37V22h3v-.16a6.77,6.77,0,0,1-.51-2.37V2.78A6.66,6.66,0,0,1,94,.42V.26h-3V.42a6.64,6.64,0,0,1,.52,2.36v7H83.26v-7A6.88,6.88,0,0,1,83.77.42V.26H80.83V.42a6.88,6.88,0,0,1,.51,2.36M103.22,0c-4.16,0-6.94,5-6.94,10.94,0,5.19,2.21,11.33,6.94,11.33s7-6.14,7-11.33c0-5.95-2.79-10.94-7-10.94m0,.7c3.49,0,4.8,4.77,4.8,10.24,0,5-1,10.63-4.8,10.63s-4.8-5.67-4.8-10.63C98.42,5.47,99.77.7,103.22.7m9-.44-.8,2.4h.2A11.52,11.52,0,0,1,115.32,1h2.46V19.49a6.77,6.77,0,0,1-.51,2.37V22h2.94v-.16a7,7,0,0,1-.51-2.37V1h2.5a9.06,9.06,0,0,1,3.55,1.7h.19l-.67-2.4Zm16.1,2.52V19.49a7,7,0,0,1-.51,2.37V22h9.63l.67-2.79h-.13c-.64.77-1.95,2.11-2.66,2.11H130.2V10.5h6.37V9.82H130.2V.93h4.73c.77,0,2.12,1.34,2.72,2.11h.13L137.11.26h-9.34V.42a6.88,6.88,0,0,1,.51,2.36m13.21,19.08c-.32-.9-.32-2.15.29-4.2l1.41-4.76h7l2,5.44a7.92,7.92,0,0,1,.45,3.52V22h2.94l-8-22h-1.31l-6.75,21.86,0,.16h2Zm1.92-9.67,2.91-9.89,3.59,9.89ZM154.16.26l-.8,2.4h.2A11.52,11.52,0,0,1,157.3,1h2.46V19.49a7,7,0,0,1-.51,2.37V22h2.95v-.16a6.76,6.76,0,0,1-.52-2.37V1h2.5a9.06,9.06,0,0,1,3.55,1.7h.19l-.67-2.4Zm16.1,2.52V19.49a7,7,0,0,1-.51,2.37V22h2.94v-.16a6.76,6.76,0,0,1-.51-2.34V10.88h1.95c4.9,0,7.49-2,7.49-5.5,0-3.17-2.59-5.12-6.11-5.12-1.48,0-2.82.06-3.49.06s-1.7,0-2.27-.06V.42a6.88,6.88,0,0,1,.51,2.36M174.87,1a4.16,4.16,0,0,1,4.54,4.55c0,2.88-1.5,4.64-5.28,4.64h-1.95V1Z"/></g></g></svg>