<svg xmlns="http://www.w3.org/2000/svg" width="236.499" height="88.803" viewBox="0 0 236.499 88.803">
  <g id="Group_176" data-name="Group 176" transform="translate(-10299.999 -1791.743)">
    <g id="Group_175" data-name="Group 175">
      <g id="Group_157" data-name="Group 157">
        <g id="Group_156" data-name="Group 156">
          <path id="Path_59" data-name="Path 59" d="M10308.959,1815.736h3.056l11.163,15.552h7.443l-11.886-16.107a11.62,11.62,0,0,0,8.941-11.5,11.274,11.274,0,0,0-3.555-8.553c-2.332-2.278-5.665-3.388-10.053-3.388h-11.163v39.545h6.053Zm0-18.106h5c4.5,0,7.5,2.333,7.5,6.054s-2.943,6.221-7.442,6.221h-5.055Z"/>
        </g>
      </g>
      <g id="Group_159" data-name="Group 159">
        <g id="Group_158" data-name="Group 158">
          <path id="Path_60" data-name="Path 60" d="M10360.777,1822.513l3.832,8.775h6.665l-17.606-39.545h-3.722l-17.606,39.545h6.72l3.777-8.775Zm-11-16.052,1.055-2.721a22.487,22.487,0,0,0,.833-2.111h.333c.5,1.61,1.111,3.221,1.778,4.832l4.387,10.109h-12.774Z"/>
        </g>
      </g>
      <g id="Group_160" data-name="Group 160">
        <path id="Path_61" data-name="Path 61" d="M10393.788,1806.183l-14.385-14.44h-4.222v39.545h6.109v-22.55c0-1.5-.055-3.777-.222-6.887h.334a40.8,40.8,0,0,0,3.832,4.388l8.553,8.553,8.609-8.553a47.116,47.116,0,0,0,3.776-4.388h.39c-.167,1.555-.223,3.832-.223,6.887v22.55h6.054v-39.545h-4.164Z"/>
      </g>
      <g id="Group_162" data-name="Group 162">
        <g id="Group_161" data-name="Group 161">
          <path id="Path_62" data-name="Path 62" d="M10440.941,1810.737a8.976,8.976,0,0,0,4.165-7.775,10.771,10.771,0,0,0-3.277-7.943c-2.166-2.166-5.332-3.276-9.5-3.276H10421v39.545h12.719a13.728,13.728,0,0,0,9.164-3.055,10.392,10.392,0,0,0,3.666-8.442A10.224,10.224,0,0,0,10440.941,1810.737Zm-13.887-13.107h5.555c3.721,0,6.442,2.055,6.442,5.332,0,3.555-2.443,5.387-6.275,5.387h-5.722Zm6.388,27.716h-6.388v-11.165h6.11c4.443,0,7.22,1.944,7.22,5.5C10440.385,1823.4,10437.608,1825.346,10433.442,1825.346Z"/>
        </g>
      </g>
      <g id="Group_163" data-name="Group 163">
        <path id="Path_63" data-name="Path 63" d="M10472.745,1825.346h-13.274v-33.6h-6.109v39.545h19.384Z"/>
      </g>
      <g id="Group_164" data-name="Group 164">
        <path id="Path_64" data-name="Path 64" d="M10501.626,1797.63v-5.887h-22.605v39.545h22.605v-5.942h-16.5V1813.4h16v-5.888h-16v-9.886Z"/>
      </g>
      <g id="Group_166" data-name="Group 166">
        <g id="Group_165" data-name="Group 165">
          <path id="Path_65" data-name="Path 65" d="M10533.554,1803.684a11.274,11.274,0,0,0-3.555-8.553c-2.332-2.278-5.665-3.388-10.053-3.388h-11.163v39.545h6.054v-15.552h3.054l11.164,15.552h7.443l-11.886-16.107A11.62,11.62,0,0,0,10533.554,1803.684Zm-13.663,6.221h-5.054V1797.63h5c4.5,0,7.5,2.333,7.5,6.054S10524.39,1809.905,10519.891,1809.905Z"/>
        </g>
      </g>
      <g id="Group_167" data-name="Group 167">
        <path id="Path_66" data-name="Path 66" d="M10317.106,1864.717h9.386v8.887a27.262,27.262,0,0,1-6.442.722,13.1,13.1,0,0,1-9.941-4.055,14.043,14.043,0,0,1-3.889-10.109,14.533,14.533,0,0,1,3.889-10.275,12.851,12.851,0,0,1,9.941-4.22,18.636,18.636,0,0,1,7.942,1.943,28.344,28.344,0,0,1,2.722,1.611v-6.776a23.387,23.387,0,0,0-10.664-2.721,19.384,19.384,0,0,0-14.219,5.943,19.856,19.856,0,0,0-5.832,14.495,19.822,19.822,0,0,0,20.051,20.106,40.8,40.8,0,0,0,12.607-2.11v-19.439h-15.551Z"/>
      </g>
      <g id="Group_169" data-name="Group 169">
        <g id="Group_168" data-name="Group 168">
          <path id="Path_67" data-name="Path 67" d="M10364.725,1852.331a11.277,11.277,0,0,0-3.554-8.553c-2.333-2.277-5.666-3.388-10.054-3.388h-11.163v39.546h6.054v-15.552h3.054l11.164,15.552h7.442l-11.885-16.107A11.622,11.622,0,0,0,10364.725,1852.331Zm-18.717,6.221v-12.275h5c4.5,0,7.5,2.333,7.5,6.054s-2.943,6.221-7.442,6.221Z"/>
        </g>
      </g>
      <g id="Group_171" data-name="Group 171">
        <g id="Group_170" data-name="Group 170">
          <path id="Path_68" data-name="Path 68" d="M10389.772,1839.724a19.012,19.012,0,0,0-14.163,6,20.8,20.8,0,0,0,0,28.882,19.982,19.982,0,0,0,28.382.055,20.934,20.934,0,0,0,0-28.992A19.206,19.206,0,0,0,10389.772,1839.724Zm9.941,30.715a13.883,13.883,0,0,1-19.829,0,15.528,15.528,0,0,1,0-20.552,13.757,13.757,0,0,1,19.829,0,15.525,15.525,0,0,1,0,20.552Z"/>
        </g>
      </g>
      <g id="Group_172" data-name="Group 172">
        <path id="Path_69" data-name="Path 69" d="M10438.7,1865.272c0,5.832-3.5,9.22-8,9.22-4.61,0-8.11-3.388-8.11-9.22V1840.39h-6.054v25.271a14.659,14.659,0,0,0,4.111,10.832,13.7,13.7,0,0,0,10.053,4.053,13.535,13.535,0,0,0,9.941-4.053q4.166-4.085,4.166-10.832V1840.39h-6.109Z"/>
      </g>
      <g id="Group_174" data-name="Group 174">
        <g id="Group_173" data-name="Group 173">
          <path id="Path_70" data-name="Path 70" d="M10459.415,1866.217h4.554a17.168,17.168,0,0,0,10.775-3.277c2.833-2.166,4.277-5.444,4.277-9.776a11.956,11.956,0,0,0-3.832-9.109q-3.833-3.666-10.664-3.665h-11.164v39.546h6.054Zm0-19.94h5c4.943,0,8.387,2.721,8.387,6.887,0,4.277-3.276,7.11-8.331,7.11h-5.055Z"/>
        </g>
      </g>
    </g>
  </g>
</svg>
