<svg xmlns="http://www.w3.org/2000/svg" width="314.881" height="74.195" viewBox="0 0 314.881 74.195">
  <path id="Path_152" data-name="Path 152" d="M-125.6,0h8.536V-.469l-28.515-36.394,25.982-26.545v-.375h-5.534a15.36,15.36,0,0,1-2.626,5.253l-21.574,22.418v-20.26a20.037,20.037,0,0,1,1.5-6.941v-.469h-8.629v.469a20.037,20.037,0,0,1,1.5,6.941V-7.41a20.037,20.037,0,0,1-1.5,6.941V0h8.629V-.469a20.037,20.037,0,0,1-1.5-6.941V-33.017L-129.536-7.41c1.688,2.157,4.127,5.253,3.94,6.941Zm26.264.75c12.194,0,20.354-14.633,20.354-32.079,0-15.2-6.472-33.2-20.354-33.2-13.695,0-20.354,18.009-20.354,33.2C-119.687-13.882-111.526.75-99.333.75Zm0-2.064c-10.224,0-14.07-13.976-14.07-30.015,0-14.539,2.908-31.141,14.07-31.141,11.35,0,14.07,16.6,14.07,31.141C-85.263-15.289-89.2-1.313-99.333-1.313Zm26.639-54.966V-7.316a20.037,20.037,0,0,1-1.5,6.941V.094h5.628V-.375a19.739,19.739,0,0,1-1.782-6.941V-57.592L-53.371.094h.563L-35.643-56V-7.316a20.037,20.037,0,0,1-1.5,6.941V.094h8.629V-.375a20.037,20.037,0,0,1-1.5-6.941V-56.279a20.037,20.037,0,0,1,1.5-6.941v-.469h-7.316L-51.308-12.944-66.315-63.689h-7.879v.469A20.037,20.037,0,0,1-72.694-56.279ZM-20.167-.469C-21.1-3.1-21.2-6.753-19.322-12.757l4.315-13.976H5.722l5.816,15.946C12.85-7.035,13.319-2.345,12.85-.469V0h8.442V-.469L-1.876-64.533H-5.722L-25.982-.469l.094.469h5.722ZM-14.445-28.8-5.534-57.78,4.971-28.8ZM25.513-56.373V-7.41a20.037,20.037,0,0,1-1.5,6.941V0h8.629V-.469a20.037,20.037,0,0,1-1.5-6.941V-33.861H55.529V-7.41a20.037,20.037,0,0,1-1.5,6.941V0h8.629V-.469a20.037,20.037,0,0,1-1.5-6.941V-56.373a20.037,20.037,0,0,1,1.5-6.941v-.469H54.028v.469a20.037,20.037,0,0,1,1.5,6.941v20.542H31.141V-56.373a20.037,20.037,0,0,1,1.5-6.941v-.469H24.012v.469A20.037,20.037,0,0,1,25.513-56.373ZM65.471-2.064,63.126,9.661h.563C66.972,4.6,71.381,0,73.538,0H99.9c3.658,0,7.6,4.784,10.505,9.661h.563l-1.97-11.725h-4.315a21.346,21.346,0,0,1-.938-5.347V-56.373a20.037,20.037,0,0,1,1.5-6.941v-.469H75.508v.469c2.626,1.126,3.94,4.5,3.846,6.753L78.7-38.926C78.04-20.542,74.007-4.221,67.535-2.064ZM81.229-38.739l1.032-23.074H98.113v59.75H72.131C77.665-7.6,80.479-22.136,81.229-38.739ZM116.967-.469c-.938-2.626-1.032-6.284.844-12.288l4.315-13.976h20.729l5.816,15.946c1.313,3.752,1.782,8.442,1.313,10.318V0h8.442V-.469L135.257-64.533h-3.846L111.151-.469l.094.469h5.722ZM122.688-28.8,131.6-57.78,142.1-28.8Z" transform="translate(156.456 64.533)"/>
</svg>
