<svg xmlns="http://www.w3.org/2000/svg" width="176.904" height="64.533" viewBox="0 0 176.904 64.533">
  <path id="Path_156" data-name="Path 156" d="M-78.556-61.813h8.16v54.4A20.037,20.037,0,0,1-71.9-.469V0h8.629V-.469a20.037,20.037,0,0,1-1.5-6.941v-54.4h8.16c2.814,0,8.536,3.189,10.412,4.971h.563l-1.97-6.941H-87.561l-1.97,6.941h.563C-87.092-58.624-81.37-61.813-78.556-61.813ZM-22.934-1.97h-12.1v-31.8h18.666v-1.97H-35.034V-61.813h11.256c2.814,0,8.536,3.189,10.412,4.971h.563l-1.97-6.941H-42.162v.469a20.037,20.037,0,0,1,1.5,6.941V-7.41a20.037,20.037,0,0,1-1.5,6.941V0h28.233l1.97-6.941h-.563C-14.4-5.159-20.12-1.97-22.934-1.97Zm19.416,1.5c-.938-2.626-1.032-6.284.844-12.288L1.641-26.733H22.371l5.816,15.946C29.5-7.035,29.969-2.345,29.5-.469V0h8.442V-.469L14.773-64.533H10.928L-9.333-.469-9.239,0h5.722ZM2.2-28.8,11.115-57.78,21.621-28.8Zm40.99-27.577V-7.41a20.037,20.037,0,0,1-1.5,6.941V0h5.628V-.469A19.739,19.739,0,0,1,45.539-7.41V-57.686L62.517,0h.563L80.245-56.091V-7.41a20.037,20.037,0,0,1-1.5,6.941V0h8.629V-.469a20.037,20.037,0,0,1-1.5-6.941V-56.373a20.037,20.037,0,0,1,1.5-6.941v-.469H80.057L64.58-13.038,49.572-63.783H41.693v.469A20.037,20.037,0,0,1,43.194-56.373Z" transform="translate(89.531 64.533)"/>
</svg>
