<svg viewBox="0 0 12.87 10.642">
  <path id="Path_12" data-name="Path 12" d="M1555.919,849.314l7.666-3.159c.757-.329,3.323-1.382,3.323-1.382s1.184-.46,1.086.658c-.033.461-.3,2.073-.56,3.817l-.822,5.165s-.066.757-.625.889a2.7,2.7,0,0,1-1.645-.593c-.132-.1-2.468-1.579-3.323-2.3a.622.622,0,0,1,.033-1.052c1.184-1.086,2.6-2.435,3.454-3.291.4-.394.79-1.316-.855-.2l-4.639,3.126a1.935,1.935,0,0,1-1.514.033c-.987-.3-2.138-.691-2.138-.691s-.79-.494.559-1.02Z" transform="translate(-1555.13 -844.679)" fill="currentColor"/>
</svg>
