<svg xmlns="http://www.w3.org/2000/svg" viewBox="0 0 160.7 341.25"><title>Asset 7</title><g id="Layer_2" data-name="Layer 2"><g id="Layout"><path d="M127,234.61C127,185,112.1,148.3,74.9,148.3c-21.33,0-31.25,11.41-43.16,24.8l-7.93-5.95L132.43,24.3H59.52c-15.38,0-39.18,4.47-47.12,14.39H9.92L20.34,0H147.81V22.82L58.53,141.36a74.67,74.67,0,0,1,21.82-3.47c39.68,0,80.35,37.2,80.35,97.71S125.49,341.25,73.41,341.25C26.78,341.25,0,303.55,0,244H11.9c0,49.11,23.32,85.81,61.51,85.81C113.58,329.84,127,289.67,127,234.61Z"/></g></g></svg>