<svg xmlns="http://www.w3.org/2000/svg" viewBox="0 0 16.15 9.22"><defs><style>.cls-1{fill:#fff;opacity:0.5;}</style></defs><title>Asset 4</title><g id="Layer_2" data-name="Layer 2"><g id="Layout"><path class="cls-1" d="M7.9,9.18h1A.77.77,0,0,0,9.31,9a.66.66,0,0,0,.13-.42s0-1.29.59-1.49,1.35,1.26,2.16,1.81a1.53,1.53,0,0,0,1.07.33l2.16,0s1.13-.07.59-1a7.1,7.1,0,0,0-1.6-1.86c-1.36-1.25-1.17-1.05.45-3.22,1-1.32,1.39-2.13,1.27-2.48s-.85-.24-.85-.24l-2.43,0a.51.51,0,0,0-.31,0,.74.74,0,0,0-.22.26,13.8,13.8,0,0,1-.89,1.9C10.35,4.48,9.91,4.58,9.74,4.47c-.41-.27-.31-1.07-.31-1.64C9.43,1.05,9.7.31,8.9.11A4.48,4.48,0,0,0,7.77,0a5.11,5.11,0,0,0-2,.21c-.27.13-.49.44-.36.45A1.1,1.1,0,0,1,6.11,1a2.33,2.33,0,0,1,.24,1.1S6.49,4.22,6,4.48s-.78-.19-1.74-1.85A15.14,15.14,0,0,1,3.41.83a.67.67,0,0,0-.2-.27A.93.93,0,0,0,2.83.41H.53A.81.81,0,0,0,.05.58C-.06.72,0,1,0,1A26.23,26.23,0,0,0,3.9,7.35a5.51,5.51,0,0,0,4,1.83"/></g></g></svg>