<svg xmlns="http://www.w3.org/2000/svg" width="604.56" height="341.014" viewBox="0 0 604.56 341.014">
  <g id="Group_299" data-name="Group 299" transform="translate(-498.38 773.709)">
    <path id="Path_151" data-name="Path 151" d="M-253.88-151.36c-28.6,0-47.74,34.32-47.74,75.24,0,35.64,15.18,77.88,47.74,77.88,32.12,0,47.74-42.24,47.74-77.88C-206.14-117.04-225.28-151.36-253.88-151.36Zm0,4.84c23.98,0,33,32.78,33,70.4,0,34.1-6.82,73.04-33,73.04-26.62,0-33-38.94-33-73.04C-286.88-113.74-277.64-146.52-253.88-146.52Zm62.48,14.3V-17.38c0,5.28-1.98,13.2-3.52,16.28V0h20.24V-1.1a45.677,45.677,0,0,1-3.52-16.06v-59.4h13.42c33.66,0,51.26-13.64,51.26-37.84,0-21.78-17.6-35.2-41.8-35.2-10.12,0-19.36.44-23.98.44s-11.66-.22-15.62-.44v1.1C-193.38-145.42-191.4-137.5-191.4-132.22Zm31.68-12.54c19.36,0,31.24,11.66,31.24,31.68,0,19.8-10.34,31.9-36.3,31.9H-178.2v-63.58ZM-56.98-4.62H-85.36V-79.2h43.78v-4.62H-85.36v-61.16h26.4c6.6,0,20.02,7.48,24.42,11.66h1.32l-4.62-16.28h-64.24v1.1c1.54,3.08,3.52,11,3.52,16.28V-17.38c0,5.28-1.98,13.2-3.52,16.28V0h66.22l4.62-16.28h-1.32C-36.96-12.1-50.38-4.62-56.98-4.62Zm44.66-127.6v88.44c0,5.28-1.98,39.6-3.52,42.68V0H-3.08V-1.1C-4.62-4.18-6.6-38.5-6.6-43.78v-79.64L62.48,0H68.2V-105.82c0-5.28,1.98-39.6,3.52-42.68v-1.1H58.96v1.1c1.54,3.08,3.52,37.4,3.52,42.68v79.64L-6.6-149.6H-20.24v1.1C-18.7-145.42-12.32-135.3-12.32-132.22Zm98.56,0V-17.38c0,5.28-1.98,13.2-3.52,16.28V0h20.24V-1.1c-1.54-3.08-3.52-11-3.52-16.28V-132.22c0-5.28,1.98-13.2,3.52-16.28v-1.1H82.72v1.1C84.26-145.42,86.24-137.5,86.24-132.22Zm35.64,0v88.44c0,5.28-1.98,39.6-3.52,42.68V0h12.76V-1.1c-1.54-3.08-3.52-37.4-3.52-42.68v-79.64L196.68,0h5.72V-105.82c0-5.28,1.98-39.6,3.52-42.68v-1.1H193.16v1.1c1.54,3.08,3.52,37.4,3.52,42.68v79.64L127.6-149.6H113.96v1.1C115.5-145.42,121.88-135.3,121.88-132.22ZM266.42-146.3c16.5,0,26.4,10.78,27.5,29.04h3.3v-27.28H295.9a8.425,8.425,0,0,1-4.18,1.1c-5.28,0-9.02-7.92-25.52-7.92-29.48,0-49.5,36.74-49.5,75.46,0,35.64,15.84,77.66,51.48,77.66,20.24,0,25.52-10.12,30.58-10.12a6.351,6.351,0,0,1,3.74,1.32h.44v-60.5h-35.2v4.84h23.32v51.04c-4.18,4.4-11.44,8.36-22.88,8.36-29.48,0-36.74-40.7-36.74-72.6,0-35.42,10.34-70.4,34.76-70.4Z" transform="translate(800 -622.349)"/>
    <path id="Path_152" data-name="Path 152" d="M-234.63-132.22V-17.38c0,5.28-1.98,13.2-3.52,16.28V0h20.24V-1.1c-1.54-3.08-3.52-11-3.52-16.28V-132.22c0-5.28,1.98-13.2,3.52-16.28v-1.1h-20.24v1.1C-236.61-145.42-234.63-137.5-234.63-132.22Zm35.64,0v88.44c0,5.28-1.98,39.6-3.52,42.68V0h12.76V-1.1c-1.54-3.08-3.52-37.4-3.52-42.68v-79.64L-124.19,0h5.72V-105.82c0-5.28,1.98-39.6,3.52-42.68v-1.1h-12.76v1.1c1.54,3.08,3.52,37.4,3.52,42.68v79.64L-193.27-149.6h-13.64v1.1C-205.37-145.42-198.99-135.3-198.99-132.22ZM-21.89-10.78H-58.63C-55.11-36.52-4.95-69.52-4.95-115.06c0-21.56-11.22-36.3-31.02-36.3-18.26,0-29.7,15.62-29.7,45.54h5.28c.22-26.62,11.22-40.48,23.1-40.48,13.86,0,17.6,14.96,17.6,31.9,0,48.62-45.1,81.18-45.1,108.46V0H-4.51L.11-17.16H-.99C-4.51-12.76-15.07-10.78-21.89-10.78ZM45.65-151.36c-25.74,0-38.28,37.4-38.28,76.12s12.54,77,38.28,77,38.28-38.28,38.28-77S71.39-151.36,45.65-151.36Zm0,4.84c19.8,0,23.98,35.86,23.98,71.28S65.45-3.08,45.65-3.08,21.67-39.82,21.67-75.24,25.85-146.52,45.65-146.52ZM133.87-10.78H97.13c3.52-25.74,53.68-58.74,53.68-104.28,0-21.56-11.22-36.3-31.02-36.3-18.26,0-29.7,15.62-29.7,45.54h5.28c.22-26.62,11.22-40.48,23.1-40.48,13.86,0,17.6,14.96,17.6,31.9,0,48.62-45.1,81.18-45.1,108.46V0h60.28l4.62-17.16h-1.1C151.25-12.76,140.69-10.78,133.87-10.78Zm67.54-140.58c-25.74,0-38.28,37.4-38.28,76.12s12.54,77,38.28,77,38.28-38.28,38.28-77S227.15-151.36,201.41-151.36Zm0,4.84c19.8,0,23.98,35.86,23.98,71.28S221.21-3.08,201.41-3.08s-23.98-36.74-23.98-72.16S181.61-146.52,201.41-146.52Z" transform="translate(800 -434.455)"/>
  </g>
</svg>
