<svg xmlns="http://www.w3.org/2000/svg" width="1050.62" height="342.014" viewBox="0 0 1050.62 342.014">
  <path id="Union_1" data-name="Union 1" d="M973.06,264.014c0-38.72,12.54-76.12,38.28-76.12s38.28,37.4,38.28,76.12-12.54,77-38.28,77S973.06,302.734,973.06,264.014Zm14.3,0c0,35.42,4.18,72.16,23.98,72.16s23.98-36.74,23.98-72.16-4.18-71.28-23.98-71.28S987.36,228.594,987.36,264.014Zm-170.06,0c0-38.72,12.54-76.12,38.28-76.12s38.281,37.4,38.281,76.12-12.541,77-38.281,77S817.3,302.734,817.3,264.014Zm14.3,0c0,35.42,4.18,72.16,23.98,72.16s23.98-36.74,23.98-72.16-4.18-71.28-23.98-71.28S831.6,228.594,831.6,264.014Zm-595.98,1.76c0-35.64,15.62-77.881,47.74-77.881,32.56,0,47.74,42.241,47.74,77.881,0,40.919-19.14,75.24-47.74,75.24S235.62,306.694,235.62,265.775Zm14.74,0c0,37.62,9.02,70.4,33,70.4,23.76,0,33-32.78,33-70.4,0-34.1-6.38-73.04-33-73.04C257.18,192.734,250.36,231.674,250.36,265.775Zm85.36,73.26v-2.2h.44c9.02,0,11-12.1,11.88-21.78l1.76-20.9c1.98-21.56,12.1-32.34,24.86-36.08-13.2-3.96-25.3-13.42-25.3-33.22,0-21.78,17.6-35.2,41.8-35.2,10.12,0,17.82.44,22.441.44s11.66-.221,15.62-.44v1.1c-1.54,3.08-3.52,11-3.52,16.28v114.84c0,5.28,1.98,13.2,3.52,16.28v1.1H408.98v-1.1a45.679,45.679,0,0,0,3.52-16.06v-61.38H389.84c-16.5,0-22,8.581-24.2,30.361l-1.98,18.7c-1.98,19.361-5.94,30.14-23.76,30.14A7.87,7.87,0,0,1,335.72,339.035Zm28.6-112.86c0,19.8,10.34,29.92,30.58,29.92h17.6v-61.16H395.56C376.2,194.934,364.32,206.154,364.32,226.174ZM900.9,339.254v-5.94c0-27.28,45.1-59.84,45.1-108.46,0-16.94-3.74-31.9-17.6-31.9-11.88,0-22.881,13.86-23.1,40.48h-5.28c0-29.92,11.44-45.54,29.7-45.54,19.8,0,31.02,14.74,31.02,36.3,0,45.54-50.161,78.539-53.68,104.279H943.8c6.819,0,17.38-1.98,20.9-6.38h1.1l-4.62,17.16Zm-155.76,0v-5.94c0-27.28,45.1-59.84,45.1-108.46,0-16.94-3.74-31.9-17.6-31.9-11.88,0-22.88,13.86-23.1,40.48H744.26c0-29.92,11.44-45.54,29.7-45.54,19.8,0,31.02,14.74,31.02,36.3,0,45.54-50.16,78.539-53.68,104.279h36.74c6.82,0,17.38-1.98,20.9-6.38h1.1l-4.62,17.16Zm-121,0v-1.1c1.54-3.08,3.52-11,3.52-16.28V207.034c0-5.28-1.98-13.2-3.52-16.28v-1.1h64.24l4.62,16.28h-1.32c-4.4-4.18-17.82-11.66-24.42-11.66h-26.4v61.16h43.78v4.62H640.86v74.58h28.38c6.6,0,20.02-7.48,24.42-11.66h1.32l-4.62,16.28Zm-92.84,0v-1.1c1.54-3.08,3.52-11,3.52-16.28V207.034c0-5.28-1.98-13.2-3.52-16.28v-1.1c3.96.22,11,.44,15.62.44s13.86-.44,23.98-.44c24.2,0,41.8,13.42,41.8,35.2,0,24.2-17.6,37.84-51.26,37.84H548.02v59.4a45.681,45.681,0,0,0,3.52,16.06v1.1Zm16.72-81.18h13.42c25.961,0,36.3-12.1,36.3-31.9,0-20.02-11.88-31.68-31.241-31.68H548.02Zm-107.8,81.18v-1.1c1.54-3.08,3.52-11,3.52-16.28V207.034c0-5.28-1.98-13.2-3.52-16.28v-1.1H509.74l4.62,16.28h-1.32c-4.4-4.18-17.82-11.66-24.42-11.66H456.94v60.94h16.72c32.56,0,47.3,19.36,47.3,39.82s-14.739,44.22-47.52,44.22Zm16.72-17.16a50.039,50.039,0,0,0,2.2,12.541H472.78c25.08,0,33.44-19.8,33.44-39.82s-9.24-34.979-34.321-34.979H456.94Zm-252.78,17.16v-1.1c1.541-3.08,3.521-11,3.521-16.28v-62.04h-57.2v62.04c0,5.28,1.98,13.2,3.52,16.28v1.1H133.76v-1.1c1.54-3.08,3.52-11,3.52-16.28V207.034c0-5.28-1.98-13.2-3.52-16.28v-1.1H154v1.1c-1.54,3.08-3.52,11-3.52,16.28v48.18h57.2v-48.18c0-5.28-1.98-13.2-3.521-16.28v-1.1H224.4v1.1c-1.54,3.08-3.52,11-3.52,16.28v114.84c0,5.28,1.98,13.2,3.52,16.28v1.1ZM0,339.254v-1.1c1.54-3.08,3.52-11,3.52-16.28V207.034c0-5.28-1.98-13.2-3.52-16.28v-1.1c3.96.22,11,.44,15.62.44s7.48-.44,17.6-.44c24.2,0,42.02,13.42,42.02,33.66,0,19.579-12.54,29.92-25.96,34.979,19.36,3.081,34.76,16.5,34.76,36.3s-11.44,44.66-47.52,44.66Zm16.72-17.16a50.078,50.078,0,0,0,2.2,12.541H35.86c24.861,0,33-18.921,33-38.721,0-20.02-9.68-33.88-29.04-33.88H16.72Zm0-64.679H31.46c20.239,0,28.6-11.44,28.6-34.321,0-16.94-7.48-28.6-31.24-28.6H16.72ZM127.27,77.88C127.27,42.24,142.89,0,175.01,0c32.56,0,47.74,42.24,47.74,77.88,0,40.92-19.14,75.24-47.74,75.24S127.27,118.8,127.27,77.88Zm14.74,0c0,37.62,9.02,70.4,33,70.4,23.761,0,33-32.781,33-70.4,0-34.1-6.38-73.039-33-73.039C148.83,4.84,142.01,43.78,142.01,77.88ZM850.19,151.36v-1.1c1.541-3.081,3.521-11,3.521-16.28V19.14c0-5.28-1.98-13.2-3.521-16.28V1.76h64.24L919.05,18.04h-1.32c-4.4-4.18-17.82-11.66-24.42-11.66h-26.4V67.54H910.69V72.16H866.91V146.74H895.29c6.6,0,20.02-7.48,24.42-11.66h1.32l-4.621,16.28Zm-31.24,0v-1.1c1.541-3.081,3.521-11,3.521-16.28V15.4L763.73,151.36h-16.5v-1.1c1.54-3.081,3.52-11,3.52-16.28V19.14c0-5.28-1.98-13.2-3.52-16.28V1.76h20.02v1.1c-1.54,3.08-3.52,11-3.52,16.28V137.06L822.47,1.76h16.5v1.1c-1.54,3.08-3.52,11-3.52,16.28V133.98c0,5.279,1.98,13.2,3.52,16.28v1.1Zm-139.7,0v-1.1c1.54-3.081,3.52-11,3.52-16.28V6.6H665.83c-5.06,0-22,8.581-25.74,11.66h-1.32l5.5-16.5h89.98l4.621,16.5h-1.32C733.15,14.08,717.97,6.6,713.13,6.6H695.97V133.98c0,5.279,1.98,13.2,3.52,16.28v1.1Zm-68.86,0v-1.1c1.54-3.081,3.52-11,3.52-16.28V19.14c0-5.28-1.98-13.2-3.52-16.28V1.76h20.24v1.1c-1.54,3.08-3.52,11-3.52,16.28V133.98c0,5.279,1.98,13.2,3.52,16.28v1.1Zm-89.98,0v-1.1c1.54-3.081,3.52-11,3.52-16.28V19.14c0-5.28-1.98-13.2-3.52-16.28V1.76h20.24v1.1a45.679,45.679,0,0,0-3.52,16.06v46.2h16.72c32.56,0,47.3,20.46,47.3,40.919s-14.739,45.32-47.52,45.32Zm16.72-4.84h15.84c25.08,0,33-20.68,33-40.7s-8.8-36.08-33.88-36.08H537.13Zm-109.56,4.84v-1.1c1.54-3.081,3.52-11,3.52-16.28V19.14c0-5.28-1.98-13.2-3.52-16.28V1.76c3.96.22,11,.439,15.619.439s13.86-.439,23.98-.439c24.2,0,41.8,13.42,41.8,35.2,0,24.2-17.6,37.84-51.26,37.84H444.29v59.4a45.663,45.663,0,0,0,3.521,16.061v1.1ZM444.29,70.18H457.71c25.96,0,36.3-12.1,36.3-31.9,0-20.02-11.88-31.68-31.24-31.68H444.29Zm-43.56,81.18v-1.1c.44-3.96-5.279-11.22-9.239-16.28L345.07,73.92V133.98c0,5.279,1.98,13.2,3.52,16.28v1.1H328.35v-1.1c1.54-3.081,3.52-11,3.52-16.28V19.14c0-5.28-1.98-13.2-3.52-16.28V1.76h20.24v1.1c-1.54,3.08-3.52,11-3.52,16.28V66.66l50.6-52.581c2.86-3.08,5.06-8.8,6.16-12.319h12.98V2.64L353.87,64.9l66.88,85.361v1.1Zm-140.14,0v-1.1c1.541-3.081,3.521-11,3.521-16.28V6.6H247.17c-5.06,0-22,8.581-25.74,11.66H220.11l5.5-16.5h89.98l4.62,16.5h-1.32C314.49,14.08,299.31,6.6,294.47,6.6H277.31V133.98c0,5.279,1.98,13.2,3.52,16.28v1.1Z" transform="translate(0.5 0.5)" stroke="rgba(0,0,0,0)" stroke-width="1"/>
</svg>
