<svg xmlns="http://www.w3.org/2000/svg" width="1139.72" height="342.014" viewBox="0 0 1139.72 342.014">
  <g id="Group_297" data-name="Group 297" transform="translate(-230.91 774.209)">
    <path id="Union_1" data-name="Union 1" d="M1062.16,264.014c0-38.72,12.54-76.12,38.28-76.12s38.28,37.4,38.28,76.12-12.54,77-38.28,77S1062.16,302.734,1062.16,264.014Zm14.3,0c0,35.42,4.18,72.16,23.98,72.16s23.98-36.74,23.98-72.16-4.18-71.28-23.98-71.28S1076.46,228.594,1076.46,264.014Zm-170.06,0c0-38.72,12.54-76.12,38.28-76.12s38.281,37.4,38.281,76.12-12.541,77-38.281,77S906.4,302.734,906.4,264.014Zm14.3,0c0,35.42,4.18,72.16,23.98,72.16s23.98-36.74,23.98-72.16-4.18-71.28-23.98-71.28S920.7,228.594,920.7,264.014Zm-817.52-.88c0-40.919,19.14-75.24,47.741-75.24s47.74,34.321,47.74,75.24c0,35.64-15.619,77.881-47.74,77.881C118.36,341.014,103.18,298.774,103.18,263.134Zm14.74,0c0,34.1,6.38,73.04,33,73.04,26.18,0,33-38.94,33-73.04,0-37.62-9.021-70.4-33-70.4C127.16,192.734,117.92,225.514,117.92,263.134Zm640.86,48.84-1.98-20.9c-1.98-21.78-9.9-30.361-26.4-30.361H707.74v61.38a45.679,45.679,0,0,0,3.52,16.06v1.1H691.02v-1.1c1.54-3.08,3.52-11,3.52-16.28V207.034c0-5.28-1.98-13.2-3.52-16.28v-1.1c3.96.22,11,.44,15.62.44s12.319-.44,22.44-.44c24.2,0,42.02,13.42,42.02,35.2,0,19.8-12.541,29.26-25.52,33.22,12.98,3.74,24.86,14.52,27.06,36.08l2.2,23.1c.88,9.68,3.74,18.7,12.76,18.7h1.32v3.081a16.1,16.1,0,0,1-5.06.879C766.04,339.914,760.32,329.354,758.78,311.974Zm-51.04-55.88h17.6c20.24,0,30.58-10.12,30.58-29.92,0-20.02-11.88-31.241-31.24-31.241H707.74ZM990,339.254v-5.94c0-27.28,45.1-59.84,45.1-108.46,0-16.94-3.74-31.9-17.6-31.9-11.88,0-22.881,13.86-23.1,40.48h-5.28c0-29.92,11.44-45.54,29.7-45.54,19.8,0,31.02,14.74,31.02,36.3,0,45.54-50.161,78.539-53.68,104.279H1032.9c6.819,0,17.38-1.98,20.9-6.38h1.1l-4.62,17.16Zm-155.76,0v-5.94c0-27.28,45.1-59.84,45.1-108.46,0-16.94-3.74-31.9-17.6-31.9-11.88,0-22.88,13.86-23.1,40.48H833.36c0-29.92,11.44-45.54,29.7-45.54,19.8,0,31.019,14.74,31.019,36.3,0,45.54-50.16,78.539-53.68,104.279h36.74c6.82,0,17.38-1.98,20.9-6.38h1.1l-4.62,17.16Zm-225.059,0v-1.1c1.54-3.08,3.52-11,3.52-16.28V207.034c0-5.28-1.98-13.2-3.52-16.28v-1.1H673.42l4.621,16.28h-1.32c-4.4-4.18-17.82-11.66-24.42-11.66H625.9v61.16H669.68v4.62H625.9v74.58H654.28c6.6,0,20.02-7.48,24.42-11.66h1.32l-4.621,16.28Zm-93.94,0v-1.1c1.54-3.08,3.52-11,3.52-16.28V207.034c0-5.28-1.98-13.2-3.52-16.28v-1.1c3.96.22,11,.44,15.62.44s7.481-.44,17.6-.44c24.2,0,42.02,13.42,42.02,33.66,0,19.579-12.54,29.92-25.961,34.979,19.361,3.081,34.761,16.5,34.761,36.3s-11.44,44.66-47.52,44.66Zm16.72-17.16a50.079,50.079,0,0,0,2.2,12.541H551.1c24.86,0,33-18.921,33-38.721,0-20.02-9.68-33.88-29.04-33.88h-23.1Zm0-64.679H546.7c20.24,0,28.6-11.44,28.6-34.321,0-16.94-7.48-28.6-31.24-28.6h-12.1ZM481.8,339.254v-1.1c1.54-3.08,3.52-11,3.52-16.28V207.694l-40.26,131.56h-1.32l-39.82-135.3v117.92c0,5.28,2.64,13.2,4.18,16.28v1.1H394.9v-1.1c1.54-3.08,3.52-11,3.52-16.28V207.034c0-5.28-1.98-13.2-3.52-16.28v-1.1h18.48l35.2,119.02,36.3-119.02H502.04v1.1c-1.54,3.08-3.52,11-3.52,16.28v114.84c0,5.28,1.98,13.2,3.52,16.28v1.1Zm-170.94,0v-1.1c1.54-3.08,3.52-11,3.52-16.28V207.034c0-5.28-1.98-13.2-3.52-16.28v-1.1H375.1l4.62,16.28H378.4c-4.4-4.18-17.82-11.66-24.42-11.66h-26.4v61.16h43.78v4.62H327.58v74.58h28.38c6.6,0,20.021-7.48,24.42-11.66h1.32l-4.62,16.28Zm-61.6,0L199.1,190.754v-1.1h18.7v1.1c-1.1,4.4,0,15.4,3.08,24.2l36.52,107.58,31.02-102.96c4.18-14.08,3.3-22.66,1.1-28.82v-1.1h14.3v1.1l-45.54,148.5Zm-166.541,0L13.64,215.834v79.64c0,5.279,1.98,39.6,3.52,42.68v1.1H4.4v-1.1c1.54-3.08,3.52-37.4,3.52-42.68v-88.44c0-3.08-6.38-13.2-7.92-16.28v-1.1H13.64l69.08,123.42v-79.64c0-5.279-1.98-39.6-3.52-42.68v-1.1H91.96v1.1c-1.54,3.08-3.52,37.4-3.52,42.68v105.82ZM785.29,75.46C785.29,36.74,805.31,0,834.79,0c16.5,0,20.24,7.92,25.52,7.92a8.426,8.426,0,0,0,4.18-1.1h1.32V34.1h-3.3c-1.1-18.26-11-29.04-27.5-29.04h-.221c-24.42,0-34.76,34.98-34.76,70.4,0,31.9,7.26,72.6,36.74,72.6,11.44,0,18.7-3.96,22.881-8.36V88.66H836.33V83.82h35.2v60.5h-.44a6.349,6.349,0,0,0-3.74-1.32c-5.06,0-10.34,10.12-30.58,10.12C801.13,153.12,785.29,111.1,785.29,75.46Zm-518.32-.22C266.97,34.32,286.11,0,314.71,0s47.74,34.32,47.74,75.24c0,35.64-15.619,77.88-47.74,77.88C282.15,153.12,266.97,110.88,266.97,75.24Zm14.74,0c0,34.1,6.38,73.04,33,73.04,26.18,0,33-38.94,33-73.04,0-37.62-9.02-70.4-33-70.4C290.95,4.84,281.71,37.62,281.71,75.24Zm483.56,76.12L696.19,27.94v79.64c0,5.28,1.98,39.6,3.52,42.681v1.1H686.95v-1.1c1.54-3.081,3.52-37.4,3.52-42.681V19.14c0-3.081-6.38-13.2-7.92-16.28V1.76h13.64l69.08,123.42V45.54c0-5.28-1.98-39.6-3.52-42.68V1.76h12.76v1.1c-1.54,3.08-3.52,37.4-3.52,42.68V151.36Zm-113.96,0v-1.1c1.54-3.081,3.52-11,3.52-16.28V19.14c0-5.28-1.98-13.2-3.52-16.28V1.76h20.24v1.1c-1.541,3.08-3.52,11-3.52,16.28V133.98c0,5.279,1.979,13.2,3.52,16.28v1.1Zm-20.24,0L561.99,27.94v79.64c0,5.28,1.98,39.6,3.52,42.681v1.1H552.75v-1.1c1.54-3.081,3.52-37.4,3.52-42.681V19.14c0-3.081-6.38-13.2-7.92-16.28V1.76H561.99l69.08,123.42V45.54c0-5.28-1.98-39.6-3.52-42.68V1.76h12.76v1.1c-1.541,3.08-3.521,37.4-3.521,42.68V151.36Zm-164.561,0v-1.1c1.54-3.081,3.521-11,3.521-16.28V19.14c0-5.28-1.981-13.2-3.521-16.28V1.76h64.24L535.37,18.04h-1.32c-4.4-4.18-17.82-11.66-24.42-11.66h-26.4V67.54H527.01V72.16H483.23V146.74h28.38c6.6,0,20.02-7.48,24.421-11.66h1.32l-4.621,16.28Zm-92.84,0v-1.1c1.54-3.081,3.52-11,3.52-16.28V19.14c0-5.28-1.98-13.2-3.52-16.28V1.76c3.96.22,11,.439,15.62.439s13.86-.439,23.98-.439c24.2,0,41.8,13.42,41.8,35.2,0,24.2-17.6,37.84-51.259,37.84H390.39v59.4a45.684,45.684,0,0,0,3.52,16.061v1.1Zm16.72-81.18h13.42c25.96,0,36.3-12.1,36.3-31.9,0-20.02-11.88-31.68-31.24-31.68H390.39Z" transform="translate(231.41 -773.709)" stroke="rgba(0,0,0,0)" stroke-width="1"/>
  </g>
</svg>
