<svg xmlns="http://www.w3.org/2000/svg" width="793.76" height="341.014" viewBox="0 0 793.76 341.014">
  <g id="Group_298" data-name="Group 298" transform="translate(-403.23 773.709)">
    <path id="Path_149" data-name="Path 149" d="M-349.03,1.76c28.6,0,47.74-34.32,47.74-75.24,0-35.64-15.18-77.88-47.74-77.88-32.12,0-47.74,42.24-47.74,77.88C-396.77-32.56-377.63,1.76-349.03,1.76Zm0-4.84c-23.98,0-33-32.78-33-70.4,0-34.1,6.82-73.04,33-73.04,26.62,0,33,38.94,33,73.04C-316.03-35.86-325.27-3.08-349.03-3.08Zm50.6-146.52-5.5,16.5h1.32c3.74-3.08,20.68-11.66,25.74-11.66h16.94V-17.38c0,5.28-1.98,13.2-3.52,16.28V0h20.24V-1.1c-1.54-3.08-3.52-11-3.52-16.28V-144.76h17.16c4.84,0,20.02,7.48,24.42,11.66h1.32l-4.62-16.5ZM-123.31,0h20.02V-1.1l-66.88-85.36,60.94-62.26v-.88h-12.98c-1.1,3.52-3.3,9.24-6.16,12.32l-50.6,52.58v-47.52c0-5.28,1.98-13.2,3.52-16.28v-1.1h-20.24v1.1c1.54,3.08,3.52,11,3.52,16.28V-17.38c0,5.28-1.98,13.2-3.52,16.28V0h20.24V-1.1c-1.54-3.08-3.52-11-3.52-16.28V-77.44l46.42,60.06c3.96,5.06,9.68,12.32,9.24,16.28Zm30.36-132.22V-17.38c0,5.28-1.98,13.2-3.52,16.28V0h20.24V-1.1a45.677,45.677,0,0,1-3.52-16.06v-59.4h13.42c33.66,0,51.26-13.64,51.26-37.84,0-21.78-17.6-35.2-41.8-35.2-10.12,0-19.36.44-23.98.44s-11.66-.22-15.62-.44v1.1C-94.93-145.42-92.95-137.5-92.95-132.22Zm31.68-12.54c19.36,0,31.24,11.66,31.24,31.68,0,19.8-10.34,31.9-36.3,31.9H-79.75v-63.58ZM89.87-132.22V-17.38c0,5.28-1.98,13.2-3.52,16.28V0h20.24V-1.1c-1.54-3.08-3.52-11-3.52-16.28V-132.22c0-5.28,1.98-13.2,3.52-16.28v-1.1H86.35v1.1C87.89-145.42,89.87-137.5,89.87-132.22ZM29.81-86.24H13.09v-46.2a45.677,45.677,0,0,1,3.52-16.06v-1.1H-3.63v1.1c1.54,3.08,3.52,11,3.52,16.28V-17.38c0,5.28-1.98,13.2-3.52,16.28V0H29.59C62.37,0,77.11-24.86,77.11-45.32S62.37-86.24,29.81-86.24ZM13.09-4.84V-81.62H28.05c25.08,0,33.88,16.06,33.88,36.08s-7.92,40.7-33,40.7ZM120.23-149.6l-5.5,16.5h1.32c3.74-3.08,20.68-11.66,25.74-11.66h16.94V-17.38c0,5.28-1.98,13.2-3.52,16.28V0h20.24V-1.1c-1.54-3.08-3.52-11-3.52-16.28V-144.76h17.16c4.84,0,20.02,7.48,24.42,11.66h1.32l-4.62-16.5Zm106.48,17.38V-17.38c0,5.28-1.98,13.2-3.52,16.28V0h16.5l58.74-135.96V-17.38c0,5.28-1.98,13.2-3.52,16.28V0h20.02V-1.1c-1.54-3.08-3.52-11-3.52-16.28V-132.22c0-5.28,1.98-13.2,3.52-16.28v-1.1h-16.5L239.69-14.3V-132.22c0-5.28,1.98-13.2,3.52-16.28v-1.1H223.19v1.1C224.73-145.42,226.71-137.5,226.71-132.22ZM371.25-4.62H342.87V-79.2h43.78v-4.62H342.87v-61.16h26.4c6.6,0,20.02,7.48,24.42,11.66h1.32l-4.62-16.28H326.15v1.1c1.54,3.08,3.52,11,3.52,16.28V-17.38c0,5.28-1.98,13.2-3.52,16.28V0h66.22l4.62-16.28h-1.32C391.27-12.1,377.85-4.62,371.25-4.62Z" transform="translate(800 -622.349)"/>
    <path id="Path_150" data-name="Path 150" d="M-214.72-132.22V-17.38c0,5.28-1.98,13.2-3.52,16.28V0h36.52c36.08,0,47.52-24.86,47.52-44.66s-15.4-33.22-34.76-36.3c13.42-5.06,25.96-15.4,25.96-34.98,0-20.24-17.82-33.66-42.02-33.66-10.12,0-12.98.44-17.6.44s-11.66-.22-15.62-.44v1.1C-216.7-145.42-214.72-137.5-214.72-132.22Zm13.2-12.54h12.1c23.76,0,31.24,11.66,31.24,28.6,0,22.88-8.36,34.32-28.6,34.32h-14.74Zm52.14,101.42c0,19.8-8.14,38.72-33,38.72h-16.94a50.066,50.066,0,0,1-2.2-12.54V-77.22h23.1C-159.06-77.22-149.38-63.36-149.38-43.34ZM-41.8-10.78H-78.54c3.52-25.74,53.68-58.74,53.68-104.28,0-21.56-11.22-36.3-31.02-36.3-18.26,0-29.7,15.62-29.7,45.54h5.28c.22-26.62,11.22-40.48,23.1-40.48,13.86,0,17.6,14.96,17.6,31.9,0,48.62-45.1,81.18-45.1,108.46V0h60.28l4.62-17.16h-1.1C-24.42-12.76-34.98-10.78-41.8-10.78ZM25.74-151.36c-25.74,0-38.28,37.4-38.28,76.12S0,1.76,25.74,1.76s38.28-38.28,38.28-77S51.48-151.36,25.74-151.36Zm0,4.84c19.8,0,23.98,35.86,23.98,71.28S45.54-3.08,25.74-3.08,1.76-39.82,1.76-75.24,5.94-146.52,25.74-146.52ZM113.96-10.78H77.22c3.52-25.74,53.68-58.74,53.68-104.28,0-21.56-11.22-36.3-31.02-36.3-18.26,0-29.7,15.62-29.7,45.54h5.28c.22-26.62,11.22-40.48,23.1-40.48,13.86,0,17.6,14.96,17.6,31.9,0,48.62-45.1,81.18-45.1,108.46V0h60.28l4.62-17.16h-1.1C131.34-12.76,120.78-10.78,113.96-10.78ZM181.5-151.36c-25.74,0-38.28,37.4-38.28,76.12s12.54,77,38.28,77,38.28-38.28,38.28-77S207.24-151.36,181.5-151.36Zm0,4.84c19.8,0,23.98,35.86,23.98,71.28S201.3-3.08,181.5-3.08s-23.98-36.74-23.98-72.16S161.7-146.52,181.5-146.52Z" transform="translate(800 -434.455)"/>
  </g>
</svg>
